<!-- Generated by IcoMoon.io -->
<svg version="1.1" xmlns="http://www.w3.org/2000/svg" width="32" height="32" viewBox="0 0 32 32">
<title>activity</title>
<path d="M19.886 29.143c-0.571 0-1.029-0.343-1.257-0.914l-6.514-19.886-2.629 8.114c-0.229 0.571-0.686 0.914-1.257 0.914h-5.371c-0.686 0-1.257-0.571-1.257-1.257s0.571-1.257 1.257-1.257h4.343l3.657-10.971c0.229-0.571 0.686-0.914 1.257-0.914s1.029 0.343 1.257 0.914l6.629 19.886 2.743-8.114c0.229-0.571 0.686-0.914 1.257-0.914h5.257c0.686 0 1.257 0.571 1.257 1.257s-0.571 1.257-1.257 1.257h-4.343l-3.543 10.971c-0.343 0.571-0.8 0.914-1.486 0.914z"></path>
</svg>
