<!-- Generated by IcoMoon.io -->
<svg version="1.1" xmlns="http://www.w3.org/2000/svg" width="32" height="32" viewBox="0 0 32 32">
<title>announcement</title>
<path d="M18.857 6.857c-0.343-0.229-0.686-0.229-1.029-0.114l-8.686 2.971h-1.6c-2.857 0-5.257 2.4-5.257 5.257v1.943c0 2.857 2.4 5.257 5.257 5.257h1.371l8.914 3.086c0.114 0 0.229 0.114 0.343 0.114 0.229 0 0.457-0.114 0.686-0.229 0.343-0.229 0.457-0.571 0.457-0.914v-16.457c0-0.343-0.114-0.686-0.457-0.914zM4.457 16.914v-1.943c0-1.714 1.257-2.971 2.971-2.971h0.457v7.886h-0.343c-1.714 0-3.086-1.257-3.086-2.971zM17.029 22.629l-6.857-2.4v-8.457l6.857-2.4v13.257zM22.514 8.343c-0.571 0-1.143 0.457-1.257 1.029 0 0.686 0.457 1.143 1.029 1.257 2.857 0.229 5.143 2.514 5.143 5.371s-2.286 5.143-5.143 5.371c-0.686 0-1.143 0.571-1.029 1.257 0 0.571 0.571 1.029 1.143 1.029h0.114c4.114-0.229 7.2-3.657 7.2-7.657 0.114-4-3.086-7.429-7.2-7.657z"></path>
<path d="M22.743 17.143c-0.571 0.114-1.143 0.571-1.029 1.257 0.114 0.571 0.571 1.029 1.143 1.029h0.114c1.714-0.229 3.086-1.714 3.086-3.429 0-1.829-1.257-3.2-3.086-3.429-0.571-0.114-1.143 0.343-1.257 1.029-0.114 0.571 0.343 1.143 1.029 1.257 0.457 0 1.029 0.457 1.029 1.143 0 0.571-0.571 1.143-1.029 1.143z"></path>
</svg>
