<!-- Generated by IcoMoon.io -->
<svg version="1.1" xmlns="http://www.w3.org/2000/svg" width="32" height="32" viewBox="0 0 32 32">
<title>arrow-circle-right</title>
<path d="M16 1.143c-8.229 0-14.857 6.629-14.857 14.857s6.629 14.857 14.857 14.857 14.857-6.629 14.857-14.857-6.629-14.857-14.857-14.857zM16 28.571c-6.971 0-12.571-5.6-12.571-12.571 0-3.314 1.371-6.514 3.657-8.914 2.4-2.286 5.6-3.657 8.914-3.657 6.971 0 12.571 5.6 12.571 12.571s-5.6 12.571-12.571 12.571z"></path>
<path d="M17.943 9.486c-0.457-0.457-1.143-0.457-1.6 0s-0.457 1.143 0 1.6l3.771 3.771h-10.971c-0.686 0-1.143 0.457-1.143 1.143s0.457 1.143 1.143 1.143h10.971l-3.771 3.771c-0.457 0.457-0.457 1.143 0 1.6s1.143 0.457 1.6 0l5.714-5.714c0.229-0.229 0.343-0.457 0.343-0.8s-0.114-0.571-0.343-0.8l-5.714-5.714z"></path>
</svg>
