<!-- Generated by IcoMoon.io -->
<svg version="1.1" xmlns="http://www.w3.org/2000/svg" width="32" height="32" viewBox="0 0 32 32">
<title>arrow-circle-up</title>
<path d="M16 1.143c-8.229 0-14.857 6.629-14.857 14.857s6.629 14.857 14.857 14.857 14.857-6.629 14.857-14.857-6.629-14.857-14.857-14.857zM16 28.571c-3.314 0-6.514-1.371-8.914-3.657-2.286-2.4-3.657-5.6-3.657-8.914 0-6.971 5.6-12.571 12.571-12.571s12.571 5.6 12.571 12.571-5.6 12.571-12.571 12.571z"></path>
<path d="M16.8 8.343c-0.229-0.229-0.457-0.343-0.8-0.343s-0.571 0.114-0.8 0.343l-5.714 5.714c-0.457 0.457-0.457 1.143 0 1.6s1.143 0.457 1.6 0l3.771-3.771v10.971c0 0.686 0.457 1.143 1.143 1.143s1.143-0.457 1.143-1.143v-10.971l3.771 3.771c0.457 0.457 1.143 0.457 1.6 0s0.457-1.143 0-1.6l-5.714-5.714z"></path>
</svg>
