<!-- Generated by IcoMoon.io -->
<svg version="1.1" xmlns="http://www.w3.org/2000/svg" width="32" height="32" viewBox="0 0 32 32">
<title>arrow-circle-left</title>
<path d="M16 1.143c-8.229 0-14.857 6.629-14.857 14.857s6.629 14.857 14.857 14.857 14.857-6.629 14.857-14.857-6.629-14.857-14.857-14.857zM24.914 24.914c-2.4 2.286-5.6 3.657-8.914 3.657-6.971 0-12.571-5.6-12.571-12.571s5.6-12.571 12.571-12.571 12.571 5.6 12.571 12.571c0 3.314-1.371 6.514-3.657 8.914z"></path>
<path d="M22.857 14.857h-10.971l3.771-3.771c0.457-0.457 0.457-1.143 0-1.6s-1.143-0.457-1.6 0l-5.714 5.714c-0.229 0.229-0.343 0.457-0.343 0.8s0.114 0.571 0.343 0.8l5.714 5.714c0.457 0.457 1.143 0.457 1.6 0s0.457-1.143 0-1.6l-3.771-3.771h10.971c0.686 0 1.143-0.457 1.143-1.143s-0.457-1.143-1.143-1.143z"></path>
</svg>
