<!-- Generated by IcoMoon.io -->
<svg version="1.1" xmlns="http://www.w3.org/2000/svg" width="32" height="32" viewBox="0 0 32 32">
<title>auction</title>
<path d="M25.714 8.457h-8.571v-2.743c0-1.486-1.143-2.629-2.629-2.629h-6.743c-1.486 0-2.629 1.143-2.629 2.629v12.571c0 1.486 1.143 2.629 2.629 2.629h6.629c1.486 0 2.629-1.143 2.629-2.629v-2.743h8.571c1.943 0 3.543-1.6 3.543-3.543s-1.486-3.543-3.429-3.543zM14.857 18.286c0 0.229-0.114 0.343-0.343 0.343h-6.743c-0.229 0-0.343-0.114-0.343-0.343v-1.257h5.829c0.686 0 1.143-0.457 1.143-1.143s-0.457-1.143-1.143-1.143h-5.829v-9.029c0-0.229 0.114-0.343 0.343-0.343h6.629c0.229 0 0.457 0.229 0.457 0.343v12.571zM25.714 13.257h-8.571v-2.514h8.571c0.686 0 1.257 0.571 1.257 1.257s-0.571 1.257-1.257 1.257zM4.914 25.257h11.886c0.686 0 1.143-0.457 1.143-1.143s-0.457-1.143-1.143-1.143h-11.886c-0.686 0-1.143 0.457-1.143 1.143s0.571 1.143 1.143 1.143zM19.2 26.4h-16.229c-0.686 0-1.143 0.457-1.143 1.143s0.457 1.143 1.143 1.143h16.229c0.686 0 1.143-0.457 1.143-1.143s-0.571-1.143-1.143-1.143z"></path>
</svg>
