<!-- Generated by IcoMoon.io -->
<svg version="1.1" xmlns="http://www.w3.org/2000/svg" width="32" height="32" viewBox="0 0 32 32">
<title>baby</title>
<path d="M22.171 9.143c-0.343-1.943-1.6-3.543-3.314-4.457v-1.257c0-1.6-1.257-2.857-2.857-2.857s-2.857 1.257-2.857 2.857v1.257c-1.714 0.914-2.971 2.514-3.314 4.457-0.8 0.571-1.257 1.486-1.257 2.514v15.2c0 2.514 2.057 4.571 4.571 4.571h5.714c2.514 0 4.571-2.057 4.571-4.571v-15.2c0-1.029-0.571-1.943-1.257-2.514zM14.629 6.514c0.457-0.114 0.8-0.571 0.8-1.029v-2.057c0-0.343 0.229-0.571 0.571-0.571s0.571 0.229 0.571 0.571v2.057c0 0.457 0.343 0.914 0.8 1.029 1.029 0.343 1.829 1.143 2.286 2.057h-7.2c0.343-0.914 1.143-1.714 2.171-2.057zM21.143 26.857c0 1.257-1.029 2.286-2.286 2.286h-5.714c-1.257 0-2.286-1.029-2.286-2.286v-1.143h3.429c0.686 0 1.143-0.457 1.143-1.143s-0.457-1.143-1.143-1.143h-3.429v-2.286h3.429c0.686 0 1.143-0.457 1.143-1.143s-0.457-1.143-1.143-1.143h-3.429v-2.286h3.429c0.686 0 1.143-0.457 1.143-1.143s-0.457-1.143-1.143-1.143h-3.429v-2.629c0-0.343 0.229-0.571 0.457-0.8 0.114 0 0.229-0.114 0.343-0.114h8.686c0.114 0 0.229 0 0.343 0.114 0.343 0.114 0.457 0.457 0.457 0.8v15.2z"></path>
</svg>
