<!-- Generated by IcoMoon.io -->
<svg version="1.1" xmlns="http://www.w3.org/2000/svg" width="32" height="32" viewBox="0 0 32 32">
<title>bag</title>
<path d="M24.571 13.143v-4c0-2.171-1.486-3.886-3.429-4.457v-2.4c0-0.686-0.457-1.143-1.143-1.143s-1.143 0.457-1.143 1.143v2.286h-5.714v-2.286c0-0.686-0.457-1.143-1.143-1.143s-1.143 0.457-1.143 1.143v2.4c-1.943 0.457-3.429 2.286-3.429 4.457v4.114c-1.371 0.8-2.286 2.286-2.286 3.886v9.143c0 2.514 2.057 4.571 4.571 4.571h12.571c2.514 0 4.571-2.057 4.571-4.571v-9.143c0-1.714-0.914-3.2-2.286-4zM9.714 9.143c0-1.257 1.029-2.286 2.286-2.286h8c1.257 0 2.286 1.029 2.286 2.286v3.429h-12.571v-3.429zM21.143 17.143v2.286c0 1.257-1.029 2.286-2.286 2.286h-5.714c-1.257 0-2.286-1.029-2.286-2.286v-2.286c0-1.257 1.029-2.286 2.286-2.286h5.714c1.257 0 2.286 1.029 2.286 2.286zM24.571 26.286c0 1.257-1.029 2.286-2.286 2.286h-12.571c-1.257 0-2.286-1.029-2.286-2.286v-9.143c0-1.029 0.8-1.943 1.714-2.171-0.343 0.686-0.571 1.371-0.571 2.171v2.286c0 2.514 2.057 4.571 4.571 4.571h5.714c2.514 0 4.571-2.057 4.571-4.571v-2.286c0-0.8-0.229-1.6-0.571-2.171 1.029 0.229 1.714 1.143 1.714 2.171v9.143z"></path>
</svg>
