<!-- Generated by IcoMoon.io -->
<svg version="1.1" xmlns="http://www.w3.org/2000/svg" width="32" height="32" viewBox="0 0 32 32">
<title>ball-2</title>
<path d="M16 1.029c-2.514 0-5.029 0.686-7.086 1.829-0.114 0-0.229 0.114-0.343 0.229-4.571 2.514-7.543 7.429-7.543 12.914 0 8.229 6.743 14.971 14.971 14.971s14.971-6.743 14.971-14.971-6.743-14.971-14.971-14.971zM28.571 14.857h-8.571c0.229-4.914 2.057-8 3.086-9.371 3.086 2.171 5.143 5.486 5.486 9.371zM21.143 4.457c-1.257 1.714-3.086 5.257-3.314 10.4h-3.314c-0.229-5.714-1.943-9.029-3.314-10.629 1.486-0.571 3.086-0.914 4.8-0.914 1.829 0 3.543 0.343 5.143 1.143zM9.143 5.371c0.914 1.029 2.857 3.771 3.086 9.486h-8.8c0.343-4 2.514-7.429 5.714-9.486zM3.429 17.143h8.8c-0.343 5.143-2.514 8.229-3.429 9.257-2.971-2.057-5.029-5.371-5.371-9.257zM10.857 27.543c1.143-1.486 3.314-5.029 3.657-10.4h3.314c0.229 5.714 2.057 8.914 3.429 10.4-1.6 0.686-3.314 1.143-5.143 1.143-1.943 0-3.657-0.457-5.257-1.143zM23.2 26.4c-0.914-0.914-2.857-3.543-3.2-9.257h8.571c-0.343 3.886-2.4 7.2-5.371 9.257z"></path>
</svg>
