<!-- Generated by IcoMoon.io -->
<svg version="1.1" xmlns="http://www.w3.org/2000/svg" width="32" height="32" viewBox="0 0 32 32">
<title>bar-code</title>
<path d="M24.571 24.571c-0.686 0-1.143-0.457-1.143-1.143v-14.857c0-0.686 0.457-1.143 1.143-1.143s1.143 0.457 1.143 1.143v14.857c0 0.686-0.457 1.143-1.143 1.143zM13.143 24.571c-0.686 0-1.143-0.457-1.143-1.143v-14.857c0-0.686 0.457-1.143 1.143-1.143s1.143 0.457 1.143 1.143v14.857c0 0.686-0.457 1.143-1.143 1.143zM20 24.571c-0.686 0-1.143-0.457-1.143-1.143v-14.857c0-0.686 0.457-1.143 1.143-1.143s1.143 0.457 1.143 1.143v14.857c0 0.686-0.457 1.143-1.143 1.143zM7.429 24.571c-0.686 0-1.143-0.457-1.143-1.143v-14.857c0-0.686 0.457-1.143 1.143-1.143s1.143 0.457 1.143 1.143v14.857c0 0.686-0.457 1.143-1.143 1.143z"></path>
</svg>
