<!-- Generated by IcoMoon.io -->
<svg version="1.1" xmlns="http://www.w3.org/2000/svg" width="32" height="32" viewBox="0 0 32 32">
<title>batch</title>
<path d="M25.486 7.086c-0.8-0.343-1.371-1.257-1.257-2.171 0.229-1.829-0.571-3.429-2.171-4.343-1.486-0.914-3.429-0.8-4.8 0.229-0.8 0.571-1.829 0.571-2.629 0-1.371-0.914-3.2-0.914-4.8 0-1.486 0.914-2.286 2.514-2.057 4.114 0.114 0.914-0.457 1.829-1.257 2.171-1.6 0.686-2.629 2.286-2.629 4s1.029 3.314 2.629 4c0.8 0.343 1.371 1.257 1.257 2.171-0.229 1.829 0.571 3.429 2.171 4.343 0.343 0.229 0.686 0.343 1.029 0.457v7.657c0 0.914 0.457 1.6 1.257 2.057 0.343 0.229 0.686 0.229 1.029 0.229 0.571 0 1.029-0.114 1.486-0.457l1.486-1.143 0.8 0.8c0.686 0.686 1.6 0.8 2.514 0.457s1.371-1.143 1.371-2.057v-7.429c0.343-0.114 0.8-0.229 1.143-0.457 1.486-0.914 2.4-2.514 2.171-4.229-0.114-0.914 0.457-1.829 1.257-2.171 1.6-0.686 2.629-2.286 2.629-4 0-1.943-1.029-3.543-2.629-4.229zM17.829 28.686c-0.8-0.8-2.171-0.914-3.086-0.229l-1.257 1.143c-0.114 0.114-0.114 0-0.114 0v-7.657c0.457-0.114 1.029-0.343 1.486-0.686 0.8-0.571 1.829-0.571 2.514 0 0.457 0.343 0.914 0.571 1.371 0.686v7.543l-0.914-0.8zM24.571 13.029c-1.714 0.8-2.743 2.629-2.629 4.457 0.114 0.914-0.229 1.6-1.029 2.057-0.686 0.457-1.6 0.343-2.286-0.229-1.486-1.029-3.657-1.029-5.257 0-0.686 0.571-1.6 0.571-2.286 0.114s-1.143-1.257-1.029-2.057c0.114-1.829-0.914-3.657-2.629-4.457-0.8-0.343-1.257-1.029-1.257-1.943 0-0.686 0.457-1.371 1.257-1.829 1.714-0.686 2.743-2.514 2.629-4.457-0.114-0.8 0.229-1.486 1.029-1.943 0.343-0.229 0.686-0.343 1.143-0.343 0.343 0 0.8 0.114 1.257 0.343 1.486 1.029 3.657 1.029 5.257 0 0.686-0.571 1.6-0.571 2.286-0.114s1.143 1.257 1.029 2.057c-0.114 1.829 0.914 3.657 2.629 4.457 0.8 0.343 1.257 1.029 1.257 1.943-0.114 0.914-0.571 1.6-1.371 1.943z"></path>
<path d="M16 4.571c-3.657 0-6.629 2.971-6.629 6.629s2.971 6.629 6.629 6.629 6.629-2.971 6.629-6.629-2.971-6.629-6.629-6.629zM16 15.543c-2.4 0-4.343-1.943-4.343-4.343s1.943-4.343 4.343-4.343c2.4 0 4.343 1.943 4.343 4.343s-1.943 4.343-4.343 4.343z"></path>
</svg>
