<!-- Generated by IcoMoon.io -->
<svg version="1.1" xmlns="http://www.w3.org/2000/svg" width="32" height="32" viewBox="0 0 32 32">
<title>book</title>
<path d="M25.829 1.029h-18.286c-1.943 0-3.429 1.486-3.429 3.429v22.971c0 1.943 1.486 3.429 3.429 3.429h18.057c1.257 0 2.286-1.029 2.286-2.286v-25.486c0-1.029-0.914-2.057-2.057-2.057zM18.171 10.743v-7.429h3.314v7.086c-0.457-0.686-1.143-0.914-1.486-0.914-0.571 0-1.143 0.229-1.486 0.8l-0.343 0.457zM6.4 27.543v-23.086c0-0.686 0.457-1.143 1.143-1.143h0.571v25.257h-0.571c-0.686 0.114-1.143-0.457-1.143-1.029zM25.6 28.686h-15.2v-25.371h5.486v7.886c0 1.143 0.571 2.057 1.371 2.4 0.686 0.229 1.486 0 2.057-0.571l0.571-0.686 0.229 0.457 0.114 0.114c0.343 0.571 0.914 0.8 1.486 0.8 0.229 0 0.343 0 0.571-0.114 0.914-0.343 1.486-1.257 1.486-2.4v-7.886h1.829v25.371z"></path>
</svg>
