<!-- Generated by IcoMoon.io -->
<svg version="1.1" xmlns="http://www.w3.org/2000/svg" width="32" height="32" viewBox="0 0 32 32">
<title>camera</title>
<path d="M28.229 7.429h-5.486c-0.114 0-0.114 0-0.229-0.114-0.686-0.914-2.857-3.314-4.343-3.314h-4.343c-1.486 0-3.657 2.4-4.343 3.314 0 0-0.114 0.114-0.229 0.114h-5.6c-1.714 0-2.971 1.257-2.971 2.743v15.086c0 1.486 1.371 2.743 2.971 2.743h24.571c1.714 0 2.971-1.257 2.971-2.743v-15.086c0.114-1.486-1.257-2.743-2.971-2.743zM29.029 25.257c0 0.229-0.343 0.457-0.686 0.457h-24.686c-0.457 0-0.686-0.229-0.686-0.457v-15.086c0-0.229 0.343-0.457 0.686-0.457h5.486c0.8 0 1.6-0.343 2.057-1.029 1.029-1.257 2.286-2.286 2.629-2.4h4.114c0.457 0.114 1.714 1.143 2.629 2.4 0.457 0.571 1.257 1.029 2.057 1.029h5.486c0.457 0 0.686 0.229 0.686 0.457l0.229 15.086z"></path>
<path d="M15.886 10.857c-3.429 0-6.286 2.857-6.286 6.286s2.857 6.286 6.286 6.286 6.286-2.857 6.286-6.286-2.857-6.286-6.286-6.286zM15.886 21.143c-2.171 0-4-1.829-4-4s1.829-4 4-4 4 1.829 4 4-1.714 4-4 4z"></path>
<path d="M26.743 12.571c0 0.947-0.767 1.714-1.714 1.714s-1.714-0.768-1.714-1.714c0-0.947 0.767-1.714 1.714-1.714s1.714 0.768 1.714 1.714z"></path>
</svg>
