<!-- Generated by IcoMoon.io -->
<svg version="1.1" xmlns="http://www.w3.org/2000/svg" width="32" height="32" viewBox="0 0 32 32">
<title>car</title>
<path d="M31.429 19.314c0-3.2-2.171-6.171-5.714-7.657 0 0-0.114 0-0.114-0.114-1.6-3.086-5.486-5.143-9.6-5.257h-0.114c-4.229 0-8 2.057-9.6 5.257-3.429 1.486-5.714 4.343-5.714 7.543 0 1.829 1.6 3.314 3.657 3.543 0.343 1.829 1.943 3.2 3.886 3.2s3.543-1.371 3.886-3.2h8.229c0.343 1.829 1.943 3.2 3.886 3.2s3.543-1.371 3.886-3.2c1.943-0.343 3.429-1.829 3.429-3.314zM23.2 12c-2.286 0.686-4.343 1.029-6.057 1.143v-4.457c2.629 0.229 4.914 1.486 6.057 3.314zM14.857 8.571v4.571c-2.971 0-5.143-0.686-6.286-1.143 1.143-1.829 3.543-3.086 6.286-3.429zM8.229 23.429c-0.914 0-1.714-0.8-1.714-1.714s0.8-1.714 1.714-1.714 1.714 0.8 1.714 1.714-0.8 1.714-1.714 1.714zM24.229 23.429c-0.914 0-1.714-0.8-1.714-1.714s0.8-1.714 1.714-1.714 1.714 0.8 1.714 1.714-0.8 1.714-1.714 1.714zM27.886 20.114c-0.571-1.486-2.057-2.514-3.657-2.514-1.714 0-3.086 1.029-3.771 2.514h-8.571c-0.571-1.486-2.057-2.514-3.771-2.514s-3.086 1.029-3.771 2.514c-0.914-0.114-1.6-0.571-1.6-1.257 0-2.171 1.486-4.114 3.886-5.257 1.143 0.571 3.886 1.714 8.343 1.714h1.029c2.514-0.114 5.486-0.571 8.914-1.714 2.514 1.143 4.114 3.2 4.114 5.486 0.114 0.457-0.343 1.029-1.143 1.029z"></path>
</svg>
