<!-- Generated by IcoMoon.io -->
<svg version="1.1" xmlns="http://www.w3.org/2000/svg" width="32" height="32" viewBox="0 0 32 32">
<title>card</title>
<path d="M26.514 5.6h-21.029c-2.171 0-3.771 1.6-3.771 3.771v13.257c0 2.171 1.6 3.771 3.771 3.771h21.029c1.029 0 2.057-0.457 2.857-1.257 0.686-0.686 1.029-1.714 0.914-2.514v-13.257c0-2.171-1.714-3.771-3.771-3.771zM5.486 7.886h21.029c0.914 0 1.486 0.571 1.486 1.486v1.943h-24v-1.943c0-0.914 0.571-1.486 1.486-1.486zM27.657 23.657c-0.343 0.343-0.686 0.457-1.143 0.457h-21.029c-0.914 0-1.486-0.571-1.486-1.486v-9.029h24v9.143c0 0.229-0.114 0.571-0.343 0.914z"></path>
<path d="M19.2 20.343c-0.686 0-1.143 0.457-1.143 1.143v0.343c0 0.686 0.457 1.143 1.143 1.143s1.143-0.457 1.143-1.143v-0.343c0-0.686-0.571-1.143-1.143-1.143zM22.629 20.343c-0.686 0-1.143 0.457-1.143 1.143v0.343c0 0.686 0.457 1.143 1.143 1.143s1.143-0.457 1.143-1.143v-0.343c0-0.686-0.571-1.143-1.143-1.143zM26.057 20.343c-0.686 0-1.143 0.457-1.143 1.143v0.343c0 0.686 0.457 1.143 1.143 1.143s1.143-0.457 1.143-1.143v-0.343c0-0.686-0.571-1.143-1.143-1.143z"></path>
</svg>
