<!-- Generated by IcoMoon.io -->
<svg version="1.1" xmlns="http://www.w3.org/2000/svg" width="32" height="32" viewBox="0 0 32 32">
<title>cart-3</title>
<path d="M20.686 8.457c-0.686 0-1.143 0.457-1.143 1.143 0 1.829-1.6 3.429-3.543 3.429s-3.543-1.6-3.543-3.429c0-0.686-0.457-1.143-1.143-1.143s-1.143 0.457-1.143 1.143c0 3.086 2.629 5.714 5.829 5.714s5.829-2.629 5.829-5.714c0-0.571-0.457-1.143-1.143-1.143z"></path>
<path d="M24.457 1.6h-16.914c-1.714 0-3.2 1.486-3.2 3.2v22.286c0 1.714 1.486 3.2 3.2 3.2h16.8c1.714 0 3.2-1.486 3.2-3.2v-22.286c0-1.714-1.371-3.2-3.086-3.2zM7.543 3.886h16.8c0.457 0 0.914 0.457 0.914 0.914v0.343c-0.343-0.114-0.571-0.114-0.914-0.114h-16.8c-0.343 0-0.571 0.114-0.914 0.114v-0.343c0.114-0.457 0.457-0.914 0.914-0.914zM25.257 27.2c0 0.457-0.457 0.914-0.914 0.914h-16.8c-0.457 0-0.914-0.457-0.914-0.914v-18.971c0-0.457 0.457-0.914 0.914-0.914h16.8c0.457 0 0.914 0.457 0.914 0.914v18.971z"></path>
</svg>
