<!-- Generated by IcoMoon.io -->
<svg version="1.1" xmlns="http://www.w3.org/2000/svg" width="32" height="32" viewBox="0 0 32 32">
<title>circel-1</title>
<path d="M16 0.686c-8.457 0-15.314 6.857-15.314 15.314s6.857 15.314 15.314 15.314 15.314-6.857 15.314-15.314-6.857-15.314-15.314-15.314zM16 29.029c-7.2 0-13.029-5.829-13.029-13.029s5.829-13.029 13.029-13.029 13.029 5.829 13.029 13.029-5.829 13.029-13.029 13.029z"></path>
<path d="M16 8.114c-4.343 0-7.886 3.543-7.886 7.886s3.543 7.886 7.886 7.886 7.886-3.543 7.886-7.886-3.543-7.886-7.886-7.886zM16 21.6c-3.086 0-5.6-2.514-5.6-5.6s2.514-5.6 5.6-5.6c3.086 0 5.6 2.514 5.6 5.6s-2.514 5.6-5.6 5.6z"></path>
</svg>
