<!-- Generated by IcoMoon.io -->
<svg version="1.1" xmlns="http://www.w3.org/2000/svg" width="32" height="32" viewBox="0 0 32 32">
<title>clear</title>
<path d="M25.6 6.057h-12.457c-0.914 0-1.714 0.343-2.286 0.914l-6.971 6.971c-0.8 0.8-0.8 2.057-0.114 2.857l6.971 7.886c0.571 0.686 1.486 1.143 2.4 1.143h12.571c1.829 0 3.314-1.486 3.314-3.314v-13.257c-0.229-1.714-1.6-3.2-3.429-3.2zM26.514 22.743c0 0.571-0.457 1.029-1.029 1.029h-12.571c-0.229 0-0.571-0.114-0.686-0.343l-6.857-7.771 6.857-6.857c0.229-0.229 0.457-0.229 0.686-0.229h12.457c0.571 0 1.029 0.457 1.029 1.029v13.143z"></path>
<path d="M23.2 11.314c-0.457-0.457-1.143-0.457-1.6 0l-2.857 2.857-2.857-2.857c-0.457-0.457-1.143-0.457-1.6 0s-0.457 1.143 0 1.6l2.857 2.857-2.857 2.857c-0.457 0.457-0.457 1.143 0 1.6 0.229 0.229 0.571 0.343 0.8 0.343s0.571-0.114 0.8-0.343l2.857-2.857 2.857 2.857c0.229 0.229 0.571 0.343 0.8 0.343s0.571-0.114 0.8-0.343c0.457-0.457 0.457-1.143 0-1.6l-2.857-2.857 2.857-2.857c0.457-0.457 0.457-1.143 0-1.6z"></path>
</svg>
