<!-- Generated by IcoMoon.io -->
<svg version="1.1" xmlns="http://www.w3.org/2000/svg" width="32" height="32" viewBox="0 0 32 32">
<title>close-2</title>
<path d="M16 1.029c-8.229 0-14.971 6.743-14.971 14.971s6.743 14.971 14.971 14.971 14.971-6.743 14.971-14.971-6.743-14.971-14.971-14.971zM16 28.686c-6.971 0-12.686-5.714-12.686-12.686s5.714-12.686 12.686-12.686 12.686 5.714 12.686 12.686-5.714 12.686-12.686 12.686z"></path>
<path d="M23.086 8.914c-0.457-0.457-1.143-0.457-1.6 0l-5.486 5.486-5.486-5.486c-0.457-0.457-1.143-0.457-1.6 0s-0.457 1.143 0 1.6l5.486 5.486-5.486 5.486c-0.457 0.457-0.457 1.143 0 1.6 0.229 0.229 0.571 0.343 0.8 0.343s0.571-0.114 0.8-0.343l5.486-5.486 5.486 5.486c0.229 0.229 0.571 0.343 0.8 0.343s0.571-0.114 0.8-0.343c0.457-0.457 0.457-1.143 0-1.6l-5.486-5.486 5.486-5.486c0.457-0.457 0.457-1.143 0-1.6z"></path>
</svg>
