<!-- Generated by IcoMoon.io -->
<svg version="1.1" xmlns="http://www.w3.org/2000/svg" width="32" height="32" viewBox="0 0 32 32">
<title>close</title>
<path d="M17.6 16l9.029-9.029c0.457-0.457 0.457-1.143 0-1.6s-1.143-0.457-1.6 0l-9.029 9.029-9.029-9.143c-0.457-0.457-1.143-0.457-1.6 0s-0.457 1.143 0 1.6l9.029 9.029-9.029 9.029c-0.457 0.457-0.457 1.143 0 1.6 0.229 0.229 0.571 0.343 0.8 0.343s0.571-0.114 0.8-0.343l9.029-9.029 9.029 9.029c0.229 0.229 0.571 0.343 0.8 0.343s0.571-0.114 0.8-0.343c0.457-0.457 0.457-1.143 0-1.6l-9.029-8.914z"></path>
</svg>
