<!-- Generated by IcoMoon.io -->
<svg version="1.1" xmlns="http://www.w3.org/2000/svg" width="32" height="32" viewBox="0 0 32 32">
<title>cloth</title>
<path d="M29.829 25.029l-4.8-9.829c-0.114-0.229-0.229-0.571-0.114-0.914l0.343-3.314 1.943 1.143c0.571 0.343 1.257 0.343 1.714 0 0.571-0.343 1.029-1.029 1.029-1.829v-2.743c0-0.686-0.343-1.371-0.914-1.829l-6.171-4.229c-0.686-0.457-1.371-0.686-2.171-0.686h-0.571c-0.8 0-1.6 0.571-1.714 1.486v0.686c0 1.943-0.457 2.971-2.4 2.971-2.4-0.114-2.629-1.371-2.629-2.971v-0.686c-0.229-0.8-0.914-1.486-1.714-1.486h-0.571c-0.8-0.114-1.486 0.229-2.171 0.686l-6.171 4.229c-0.571 0.343-0.914 1.029-0.914 1.829v2.743c0 0.8 0.343 1.486 1.029 1.829 0.571 0.343 1.257 0.343 1.714 0l1.943-1.143 0.571 3.314c0 0.343 0 0.686-0.114 0.914l-4.8 9.829c-0.571 1.257-0.229 2.743 0.8 3.543 1.714 1.257 5.486 2.743 13.029 2.743s11.314-1.486 13.029-2.743c1.029-0.8 1.371-2.286 0.8-3.543zM27.429 26.743c-1.257 0.914-4.343 2.286-11.657 2.286s-10.514-1.486-11.657-2.4c-0.114-0.114-0.229-0.457-0.114-0.686l4.8-9.829c0.343-0.686 0.457-1.486 0.343-2.286l-0.686-4c-0.114-0.686-0.457-1.257-1.029-1.486-0.229-0.229-0.457-0.229-0.686-0.229-0.343 0-0.571 0.114-0.914 0.229l-1.943 1.143v-1.943l6.057-4.114c0.229-0.229 0.571-0.343 0.914-0.343h0.114c0.114 3.314 1.714 5.029 4.8 5.143 2.057 0 4.571-0.914 4.686-5.143h0.114c0.343 0 0.571 0.114 0.914 0.343l6.057 4.114v2.057l-1.829-1.143c-0.457-0.229-1.029-0.229-1.6 0s-0.914 0.8-1.029 1.486l-0.686 4c-0.114 0.8 0 1.6 0.343 2.286l4.8 9.829c0.114 0.229 0 0.571-0.114 0.686z"></path>
<path d="M19.314 15.2s-0.8 0.457-3.2 0.457c-2.743 0-3.657-0.343-3.771-0.343-0.457-0.343-1.143-0.229-1.486 0.229-0.457 0.457-0.343 1.143 0.114 1.6 0.686 0.571 2.514 0.914 5.143 0.914 3.2 0 4.229-0.571 4.571-0.8 0.457-0.343 0.571-1.143 0.229-1.6-0.457-0.8-1.029-0.914-1.6-0.457z"></path>
</svg>
