<!-- Generated by IcoMoon.io -->
<svg version="1.1" xmlns="http://www.w3.org/2000/svg" width="32" height="32" viewBox="0 0 32 32">
<title>coin</title>
<path d="M16 1.029c-8.229 0-14.971 6.743-14.971 14.971s6.743 14.971 14.971 14.971 14.971-6.743 14.971-14.971-6.743-14.971-14.971-14.971zM16 28.686c-6.971 0-12.686-5.714-12.686-12.686s5.714-12.686 12.686-12.686 12.686 5.714 12.686 12.686-5.714 12.686-12.686 12.686z"></path>
<path d="M16.114 14.514c-2.171-0.571-3.086-1.029-3.086-2.171 0-1.371 1.486-1.714 2.629-1.714 1.486 0 1.829 0.8 1.943 0.914 0.229 0.571 0.914 0.914 1.486 0.686s0.914-0.914 0.686-1.486c-0.229-0.8-1.143-1.943-2.971-2.286v-1.6c0-0.686-0.457-1.143-1.143-1.143s-1.143 0.457-1.143 1.143v1.6c-2.286 0.343-3.657 1.829-3.657 3.886 0 2.971 2.743 3.771 4.8 4.343 2.286 0.686 3.314 1.143 3.314 2.514 0 0.914-1.486 2.057-3.314 2.057-1.143 0-3.771-0.229-3.771-2.514 0-0.686-0.457-1.143-1.143-1.143s-1.143 0.457-1.143 1.143c0 2.629 1.943 4.343 4.914 4.686v1.257c0 0.686 0.457 1.143 1.143 1.143s1.143-0.457 1.143-1.143v-1.257c2.514-0.457 4.457-2.171 4.457-4.229-0.114-3.2-2.971-4.114-5.143-4.686z"></path>
</svg>
