<!-- Generated by IcoMoon.io -->
<svg version="1.1" xmlns="http://www.w3.org/2000/svg" width="32" height="32" viewBox="0 0 32 32">
<title>copy</title>
<path d="M27.657 0.114h-14.514c-2.286 0-4.229 1.829-4.229 4.229v5.486h-4.686c-2.286 0-4.229 1.829-4.229 4.229v13.6c0 2.286 1.829 4.229 4.229 4.229h13.6c2.286 0 4.229-1.829 4.229-4.229v-4.686h5.6c2.286 0 4.229-1.829 4.229-4.229v-14.4c0-2.286-1.943-4.229-4.229-4.229zM19.771 27.657c0 1.029-0.8 1.943-1.943 1.943h-13.6c-1.029 0-1.943-0.8-1.943-1.943v-13.6c0-1.029 0.8-1.943 1.943-1.943h13.6c1.029 0 1.943 0.8 1.943 1.943v13.6zM29.6 18.857c0 1.029-0.8 1.943-1.943 1.943h-5.6v-6.743c0-2.286-1.829-4.229-4.229-4.229h-6.514v-5.486c0-1.029 0.8-1.943 1.943-1.943h14.514c1.029 0 1.943 0.8 1.943 1.943v14.514z"></path>
</svg>
