<!-- Generated by IcoMoon.io -->
<svg version="1.1" xmlns="http://www.w3.org/2000/svg" width="32" height="32" viewBox="0 0 32 32">
<title>currency</title>
<path d="M8.343 14.057c-2.171-0.571-3.086-1.029-3.086-2.171 0-1.371 1.486-1.714 2.629-1.714 1.486 0 1.829 0.8 1.943 0.914 0.229 0.571 0.914 0.914 1.486 0.686s0.914-0.914 0.686-1.486c-0.229-0.8-1.143-1.943-2.971-2.286v-1.6c0-0.686-0.457-1.143-1.143-1.143s-1.143 0.457-1.143 1.143v1.6c-2.286 0.343-3.657 1.829-3.657 3.886 0 2.971 2.743 3.771 4.8 4.343 2.286 0.686 3.314 1.143 3.314 2.514 0 0.914-1.486 2.057-3.314 2.057-1.143 0-3.771-0.229-3.771-2.514 0-0.686-0.457-1.143-1.143-1.143s-1.143 0.457-1.143 1.143c0 2.629 1.943 4.343 4.914 4.686v1.257c0 0.686 0.457 1.143 1.143 1.143s1.143-0.457 1.143-1.143v-1.257c2.514-0.457 4.457-2.171 4.457-4.229-0.229-3.2-3.086-4-5.143-4.686zM31.2 20.686c-0.457-0.457-1.143-0.457-1.6-0.114-0.914 0.8-1.943 1.257-2.971 1.257-1.714 0-3.086-1.029-4.114-2.514h1.829c0.686 0 1.143-0.457 1.143-1.143s-0.457-1.143-1.143-1.143h-2.743c-0.114-0.571-0.229-1.143-0.229-1.714v-0.229h2.971c0.686 0 1.143-0.457 1.143-1.143s-0.457-1.143-1.143-1.143h-2.514c0.8-2.286 2.629-3.886 4.686-3.886 0.914 0 1.714 0.343 2.514 0.8 0.571 0.343 1.257 0.229 1.6-0.229 0.343-0.571 0.229-1.257-0.229-1.6-1.143-0.8-2.514-1.257-3.886-1.257-3.314 0-6.171 2.629-7.086 6.171h-2.514c-0.686 0-1.143 0.457-1.143 1.143s0.457 1.143 1.143 1.143h2.286v0.229c0 0.571 0 1.143 0.114 1.714h-2.4c-0.686 0-1.143 0.457-1.143 1.143s0.457 1.143 1.143 1.143h3.086c1.257 2.857 3.771 4.8 6.629 4.8 1.714 0 3.2-0.686 4.571-1.829 0.343-0.343 0.457-1.143 0-1.6z"></path>
</svg>
