<!-- Generated by IcoMoon.io -->
<svg version="1.1" xmlns="http://www.w3.org/2000/svg" width="32" height="32" viewBox="0 0 32 32">
<title>delete</title>
<path d="M18.286 23.886c0.686 0 1.143-0.457 1.143-1.143v-9.714c0-0.686-0.457-1.143-1.143-1.143s-1.143 0.457-1.143 1.143v9.714c0 0.686 0.457 1.143 1.143 1.143zM13.714 23.886c0.686 0 1.143-0.457 1.143-1.143v-9.714c0-0.686-0.457-1.143-1.143-1.143s-1.143 0.457-1.143 1.143v9.714c0 0.686 0.457 1.143 1.143 1.143z"></path>
<path d="M26.857 6.971h-21.714c-0.686 0-1.143 0.457-1.143 1.143s0.457 1.143 1.143 1.143h2.057v18.171c0 0.686 0.457 1.143 1.143 1.143h15.2c0.686 0 1.143-0.457 1.143-1.143v-18.171h2.171c0.686 0 1.143-0.457 1.143-1.143s-0.457-1.143-1.143-1.143zM22.4 26.171h-12.914v-16.914h12.914v16.914zM11.771 5.829h8.457c0.686 0 1.143-0.457 1.143-1.143s-0.457-1.143-1.143-1.143h-8.457c-0.686 0-1.143 0.457-1.143 1.143s0.457 1.143 1.143 1.143z"></path>
</svg>
