<!-- Generated by IcoMoon.io -->
<svg version="1.1" xmlns="http://www.w3.org/2000/svg" width="32" height="32" viewBox="0 0 32 32">
<title>download-1</title>
<path d="M14.4 24.571c0.457 0.457 1.029 0.571 1.6 0.571s1.143-0.229 1.6-0.686l6.171-6.171c0.457-0.457 0.457-1.143 0-1.6s-1.143-0.457-1.6 0l-4.914 5.029v-17.829c0-0.686-0.457-1.143-1.143-1.143s-1.143 0.457-1.143 1.143v17.829l-5.029-5.029c-0.457-0.457-1.143-0.457-1.6 0s-0.457 1.143 0 1.6l6.057 6.286zM23.2 26.971h-14.4c-0.686 0-1.143 0.457-1.143 1.143s0.457 1.143 1.143 1.143h14.514c0.686 0 1.143-0.457 1.143-1.143s-0.571-1.143-1.257-1.143z"></path>
</svg>
