<!-- Generated by IcoMoon.io -->
<svg version="1.1" xmlns="http://www.w3.org/2000/svg" width="32" height="32" viewBox="0 0 32 32">
<title>edit-pencil</title>
<path d="M29.486 9.6l-6.971-7.086c-0.229-0.229-0.571-0.343-0.8-0.343-0.343 0-0.571 0.114-0.8 0.343l-18.4 18.057c-0.229 0.229-0.343 0.457-0.343 0.8v7.314c0 0.686 0.457 1.143 1.143 1.143h6.743c0.343 0 0.571-0.114 0.8-0.343l18.629-18.286c0.343-0.457 0.343-1.257 0-1.6zM9.6 27.657h-5.143v-5.714l2.057-2.057c0 0.114 0.114 0.114 0.114 0.229l3.657 3.657c0.229 0.229 0.571 0.343 0.8 0.343 0.343 0 0.571-0.114 0.8-0.343 0.457-0.457 0.457-1.143 0-1.6l-3.657-3.771c0-0.114-0.114-0.114-0.229-0.114l13.6-13.371 5.371 5.371-17.371 17.371z"></path>
</svg>
