<!-- Generated by IcoMoon.io -->
<svg version="1.1" xmlns="http://www.w3.org/2000/svg" width="32" height="32" viewBox="0 0 32 32">
<title>envelop</title>
<path d="M27.086 5.257h-22.286c-1.714 0-3.2 1.486-3.2 3.2v15.086c0 1.714 1.486 3.2 3.2 3.2h22.286c1.829 0 3.2-1.486 3.2-3.314v-14.971c0.114-1.714-1.371-3.2-3.2-3.2zM26.629 7.543l-9.6 7.886c-0.686 0.571-1.371 0.571-2.057 0l-9.486-7.886h21.143zM27.086 24.457h-22.286c-0.457 0-0.914-0.457-0.914-0.914v-14.286l9.6 8c0.8 0.571 1.6 0.914 2.514 0.914 0.8 0 1.714-0.343 2.514-0.914l9.6-7.886v14.057c0 0.571-0.457 1.029-1.029 1.029z"></path>
</svg>
