<!-- Generated by IcoMoon.io -->
<svg version="1.1" xmlns="http://www.w3.org/2000/svg" width="32" height="32" viewBox="0 0 32 32">
<title>exchnage</title>
<path d="M22.971 21.714c-1.6 2.171-4.343 3.429-7.086 3.429-4.343 0-8.114-3.086-8.914-7.314l2.057 2.057c0.229 0.229 0.457 0.343 0.8 0.343s0.571-0.114 0.8-0.343c0.457-0.457 0.457-1.143 0-1.6l-3.886-3.771c-0.229-0.229-0.457-0.343-0.8-0.343s-0.571 0.114-0.8 0.343l-3.543 3.657c-0.457 0.457-0.457 1.143 0 1.6s1.143 0.457 1.6 0l1.486-1.486c1.029 5.257 5.714 9.143 11.2 9.143 3.543 0 6.857-1.6 8.914-4.343 0.343-0.457 0.229-1.257-0.229-1.6s-1.257-0.229-1.6 0.229zM30.4 12.914c-0.457-0.457-1.143-0.457-1.6 0l-1.6 1.6c-0.686-5.6-5.486-9.943-11.314-9.943-4.114 0-8 2.286-9.943 5.714-0.229 0.571-0.114 1.257 0.457 1.6 0.571 0.229 1.257 0.114 1.6-0.457 1.486-2.743 4.686-4.571 7.886-4.571 4.571 0 8.457 3.429 9.029 7.886l-1.943-1.943c-0.457-0.457-1.143-0.457-1.6 0s-0.457 1.143 0 1.6l3.771 3.771c0.229 0.229 0.457 0.343 0.8 0.343s0.571-0.114 0.8-0.343l3.657-3.657c0.457-0.457 0.457-1.143 0-1.6z"></path>
</svg>
