<!-- Generated by IcoMoon.io -->
<svg version="1.1" xmlns="http://www.w3.org/2000/svg" width="32" height="32" viewBox="0 0 32 32">
<title>exchange</title>
<path d="M25.829 7.086l-5.371-5.371c-0.457-0.457-1.143-0.457-1.6 0s-0.457 1.143 0 1.6l4.229 4.229h-15.2c-0.686 0-1.143 0.457-1.143 1.143s0.457 1.143 1.143 1.143h14.971l-4 4c-0.457 0.457-0.457 1.143 0 1.6 0.229 0.229 0.571 0.343 0.8 0.343s0.571-0.114 0.8-0.343l5.371-5.371c0.343-0.343 0.571-0.914 0.571-1.486s-0.229-1.143-0.571-1.486zM24.114 22.4h-15.086l4.229-4.229c0.457-0.457 0.457-1.143 0-1.6s-1.143-0.457-1.6 0l-5.371 5.371c-0.343 0.343-0.571 0.914-0.571 1.486s0.229 1.143 0.571 1.486l5.371 5.371c0.229 0.229 0.571 0.343 0.8 0.343s0.571-0.114 0.8-0.343c0.457-0.457 0.457-1.143 0-1.6l-4-4h14.971c0.686 0 1.143-0.457 1.143-1.143s-0.571-1.143-1.257-1.143z"></path>
</svg>
