<!-- Generated by IcoMoon.io -->
<svg version="1.1" xmlns="http://www.w3.org/2000/svg" width="32" height="32" viewBox="0 0 32 32">
<title>expend-collaps</title>
<path d="M26.743 27.543h-13.029c-0.686 0-1.143-0.457-1.143-1.143s0.457-1.143 1.143-1.143h13.029c1.029 0 1.943-0.8 1.943-1.943v-18.286c0-1.029-0.8-1.943-1.943-1.943h-18.286c-1.029 0-1.943 0.8-1.943 1.943v13.143c0 0.686-0.457 1.143-1.143 1.143s-1.143-0.457-1.143-1.143v-13.143c0-2.286 1.829-4.229 4.229-4.229h18.286c2.286 0 4.229 1.829 4.229 4.229v18.286c-0.114 2.286-1.943 4.229-4.229 4.229z"></path>
<path d="M2.514 30.743c0.229 0.114 0.457 0.114 0.686 0h8.8c0.686 0 1.143-0.457 1.143-1.143s-0.457-1.143-1.143-1.143h-6.514l4-4.343 12.229-13.029c0.457-0.457 0.457-1.143 0-1.6s-1.143-0.457-1.6 0l-16 17.257v-6.4c0-0.686-0.457-1.143-1.143-1.143s-1.143 0.457-1.143 1.143v9.257c-0.114 0.457 0.229 0.914 0.686 1.143z"></path>
</svg>
