<!-- Generated by IcoMoon.io -->
<svg version="1.1" xmlns="http://www.w3.org/2000/svg" width="32" height="32" viewBox="0 0 32 32">
<title>eye-hide</title>
<path d="M9.943 4c-0.343-0.571-1.029-0.686-1.6-0.343s-0.686 1.029-0.343 1.6l1.6 2.629c-3.657 1.829-6.514 4.686-7.886 6.286-0.914 1.029-0.914 2.4 0 3.429 2.057 2.4 7.657 7.886 14.286 7.886 1.257 0 2.629-0.229 4-0.686l1.943 3.2c0.229 0.343 0.571 0.571 1.029 0.571 0.229 0 0.457 0 0.571-0.114 0.571-0.343 0.686-1.029 0.343-1.6l-13.943-22.857zM13.714 14.743l2.171 3.657c-1.371-0.114-2.4-1.143-2.4-2.514 0-0.457 0.114-0.914 0.229-1.143zM15.886 23.2c-5.714 0-10.743-5.029-12.571-7.2-0.114-0.114-0.114-0.343 0-0.457 1.371-1.486 4-4.229 7.429-5.829l1.714 2.743c-0.8 0.8-1.257 1.943-1.257 3.2 0 2.629 2.171 4.914 4.914 4.914 0.343 0 0.8-0.114 1.143-0.114l1.486 2.4c-1.029 0.229-1.943 0.343-2.857 0.343zM30.171 14.057c-2.057-2.286-7.429-7.771-13.943-7.886-0.571 0-1.143 0.457-1.143 1.143s0.457 1.143 1.143 1.143c5.6 0.229 10.4 5.029 12.229 7.086 0.114 0.114 0.114 0.343 0 0.457-0.8 0.914-2.286 2.514-4.343 4-0.457 0.343-0.571 1.143-0.229 1.6 0.229 0.343 0.571 0.457 0.914 0.457 0.229 0 0.457-0.114 0.686-0.229 2.286-1.6 4-3.429 4.8-4.343s0.8-2.4-0.114-3.429z"></path>
</svg>
