<!-- Generated by IcoMoon.io -->
<svg version="1.1" xmlns="http://www.w3.org/2000/svg" width="32" height="32" viewBox="0 0 32 32">
<title>eye-visible</title>
<path d="M30.4 14.286c-1.6-1.943-7.314-8-14.4-8s-12.8 6.057-14.4 8c-0.8 1.029-0.8 2.4 0 3.429 4.686 5.143 9.6 7.886 14.286 7.886 7.086 0 12.8-6.057 14.4-8 0.914-0.914 0.914-2.286 0.114-3.314zM28.571 16.229c-1.371 1.714-6.514 7.086-12.571 7.086-4 0-8.457-2.514-12.571-7.086-0.114-0.114-0.114-0.343 0-0.457 1.371-1.714 6.514-7.086 12.571-7.086s11.2 5.486 12.571 7.086c0.114 0.114 0.114 0.343 0 0.457z"></path>
<path d="M16.229 10.971c-2.743 0-4.914 2.171-4.914 4.914s2.171 4.914 4.914 4.914 4.914-2.171 4.914-4.914c0-2.629-2.171-4.914-4.914-4.914zM16.229 18.514c-1.486 0-2.629-1.143-2.629-2.629s1.143-2.629 2.629-2.629 2.629 1.143 2.629 2.629-1.143 2.629-2.629 2.629z"></path>
</svg>
