<!-- Generated by IcoMoon.io -->
<svg version="1.1" xmlns="http://www.w3.org/2000/svg" width="32" height="32" viewBox="0 0 32 32">
<title>file</title>
<path d="M19.543 1.486h-10.057c-2.4 0-4.229 1.943-4.229 4.229v20.571c0 2.286 1.943 4.229 4.229 4.229h13.143c2.286 0 4.229-1.943 4.229-4.229v-17.486c-0.114-3.543-2.857-7.314-7.314-7.314zM24.343 7.771h-3.771c-0.229 0-0.457-0.229-0.457-0.457v-3.543c2.514 0.343 3.886 2.286 4.229 4zM24.457 26.286c0 1.143-0.8 1.943-1.943 1.943h-13.029c-1.143 0-1.943-0.8-1.943-1.943v-20.571c0-1.143 0.8-1.943 1.943-1.943h8.457v3.543c0 1.486 1.257 2.743 2.743 2.743h3.886v16.229z"></path>
<path d="M21.829 20.343h-11.657c-0.686 0-1.143 0.457-1.143 1.143s0.457 1.143 1.143 1.143h11.543c0.686 0 1.143-0.457 1.143-1.143s-0.457-1.143-1.029-1.143zM9.029 15.771c0 0.686 0.457 1.143 1.143 1.143h11.543c0.686 0 1.143-0.457 1.143-1.143s-0.457-1.143-1.143-1.143h-11.543c-0.571 0-1.143 0.457-1.143 1.143zM10.171 11.2h4.343c0.686 0 1.143-0.457 1.143-1.143s-0.457-1.143-1.143-1.143h-4.343c-0.686 0-1.143 0.457-1.143 1.143s0.571 1.143 1.143 1.143z"></path>
</svg>
