<!-- Generated by IcoMoon.io -->
<svg version="1.1" xmlns="http://www.w3.org/2000/svg" width="32" height="32" viewBox="0 0 32 32">
<title>filter</title>
<path d="M18.057 30.171c-0.571 0-1.143-0.114-1.6-0.457l-4.114-2.629c-0.914-0.457-1.371-1.6-1.371-2.514v-10.171c0-0.229 0-0.343-0.114-0.457l-6.514-7.2c-0.914-0.8-1.143-2.057-0.686-3.086s1.486-1.829 2.629-1.829h19.314c1.143 0 2.286 0.686 2.743 1.714s0.229 2.286-0.457 3.086l-6.629 7.2c-0.114 0.114-0.114 0.229-0.114 0.457v12.8c0 1.029-0.571 2.057-1.486 2.514-0.571 0.457-1.029 0.571-1.6 0.571zM6.286 4.114c-0.229 0-0.343 0.229-0.457 0.343-0.114 0.229-0.114 0.457 0.114 0.686l6.629 7.2c0.457 0.457 0.8 1.143 0.8 2.057v10.171c0 0.229 0.114 0.457 0.229 0.457l4.229 2.629c0.229 0.229 0.457 0.114 0.686 0s0.343-0.343 0.343-0.571v-12.686c0-0.8 0.229-1.6 0.8-2.057l6.629-7.2c0-0.229 0-0.457-0.114-0.571 0-0.114-0.229-0.343-0.686-0.343h-19.2z"></path>
</svg>
