<!-- Generated by IcoMoon.io -->
<svg version="1.1" xmlns="http://www.w3.org/2000/svg" width="32" height="32" viewBox="0 0 32 32">
<title>flag</title>
<path d="M26.286 3.657l-0.114-0.114-0.229-0.114c-0.457-0.114-1.029-0.114-3.543 0.343h-0.229c-3.657 1.029-7.543 1.143-11.2 0.343l-4.229-0.686v-1.371c0-0.686-0.457-1.143-1.143-1.143s-1.143 0.457-1.143 1.143v27.886c0 0.686 0.457 1.143 1.143 1.143s1.143-0.457 1.143-1.143v-11.657l4 0.8c1.714 0.343 3.429 0.457 5.029 0.457 2.286 0 4.571-0.229 6.743-0.8 0.457-0.114 4.914-1.486 4.914-3.657v-9.143c0.114-0.571-0.114-1.486-1.143-2.286zM25.257 14.857c-0.457 0.457-2.286 1.257-3.314 1.6-3.429 0.914-7.2 1.029-10.743 0.343l-4.457-0.8v-10.286l3.771 0.8c4.114 0.8 8.343 0.686 12.229-0.343h0.229c1.257-0.343 1.829-0.457 2.171-0.457 0.114 0.114 0.114 0.114 0.114 0.229v8.914z"></path>
</svg>
