<!-- Generated by IcoMoon.io -->
<svg version="1.1" xmlns="http://www.w3.org/2000/svg" width="32" height="32" viewBox="0 0 32 32">
<title>folder</title>
<path d="M25.829 7.657h-8.686c-0.457-2.057-2.286-3.543-4.457-3.543h-6.514c-2.514 0-4.571 2.057-4.571 4.571v14.629c0 2.514 2.057 4.571 4.571 4.571h19.543c2.514 0 4.571-2.057 4.571-4.571v-11.086c0.114-2.514-1.943-4.571-4.457-4.571zM6.171 6.4h6.514c0.914 0 1.714 0.457 2.057 1.257h-8.571c-0.8 0-1.6 0.229-2.286 0.571 0.343-1.029 1.143-1.829 2.286-1.829zM28.114 23.314c0 1.143-1.143 2.286-2.286 2.286h-19.657c-1.257 0-2.286-1.029-2.286-2.286v-11.086c0-1.257 1.029-2.286 2.286-2.286h19.543c1.257 0 2.286 1.029 2.286 2.286v11.086z"></path>
</svg>
