<!-- Generated by IcoMoon.io -->
<svg version="1.1" xmlns="http://www.w3.org/2000/svg" width="32" height="32" viewBox="0 0 32 32">
<title>food</title>
<path d="M30.4 25.714h-0.686c-0.229-6.4-4.914-11.771-11.2-12.914 0.114-0.343 0.229-0.686 0.229-1.143 0-1.6-1.257-2.857-2.857-2.857s-2.857 1.257-2.857 2.857c0 0.457 0.114 0.8 0.229 1.143-6.057 1.257-10.743 6.514-10.971 12.914h-0.686c-0.686 0-1.143 0.457-1.143 1.143s0.457 1.143 1.143 1.143h28.914c0.686 0 1.143-0.457 1.143-1.143s-0.571-1.143-1.257-1.143zM16.114 11.086c0.343 0 0.571 0.229 0.571 0.571s-0.229 0.571-0.571 0.571-0.571-0.229-0.571-0.571 0.229-0.571 0.571-0.571zM16.114 14.857c4.343 0 8.114 2.514 10.057 6.057h-16.343c-0.686 0-1.143 0.457-1.143 1.143s0.457 1.143 1.143 1.143h17.257c0.229 0.8 0.343 1.6 0.343 2.514h-22.629c0.229-6.057 5.257-10.857 11.314-10.857z"></path>
<path d="M22.171 9.371c0 0.114 0 0.114-0.114 0.229l-0.8 0.914c-0.457 0.457-0.343 1.257 0.114 1.6 0.229 0.229 0.457 0.229 0.686 0.229 0.343 0 0.686-0.114 0.914-0.457l0.8-0.914c0.457-0.571 0.686-1.257 0.571-1.943s-0.457-1.257-0.914-1.714c-0.229-0.229-0.229-0.343-0.114-0.457l0.8-1.029c0.343-0.457 0.229-1.257-0.229-1.6s-1.257-0.229-1.6 0.229l-0.8 1.029c-0.8 1.143-0.686 2.629 0.457 3.543 0.114 0.114 0.114 0.229 0.229 0.343z"></path>
</svg>
