<!-- Generated by IcoMoon.io -->
<svg version="1.1" xmlns="http://www.w3.org/2000/svg" width="32" height="32" viewBox="0 0 32 32">
<title>furniture</title>
<path d="M29.486 14.743v-8.914c0-1.6-1.371-2.971-2.971-2.971h-20.8c-1.6 0-2.971 1.371-2.971 2.971v8.914c-1.143 0.343-2.057 1.371-2.057 2.629v9.143c0 1.486 1.257 2.629 2.629 2.629h3.657c1.029 0 1.829-0.571 2.286-1.371h13.371c0.457 0.8 1.371 1.371 2.286 1.371h3.657c1.486 0 2.629-1.257 2.629-2.629v-9.143c0.343-1.371-0.571-2.4-1.714-2.629zM5.714 5.143h20.8c0.343 0 0.686 0.343 0.686 0.686v8.8h-2.057c-1.486 0-2.629 1.257-2.629 2.629v1.371h-12.686v-1.371c0-1.486-1.257-2.629-2.629-2.629h-2.057v-8.8c-0.114-0.343 0.229-0.686 0.571-0.686zM9.829 21.029h12.686v4.457h-12.686v-4.457zM7.543 26.4c0 0.229-0.229 0.343-0.343 0.343h-3.657c-0.229 0-0.343-0.229-0.343-0.343v-9.143c0-0.229 0.229-0.343 0.343-0.343h3.657c0.229 0 0.343 0.229 0.343 0.343v9.143zM29.257 26.4c0 0.229-0.229 0.343-0.343 0.343h-3.657c-0.229 0-0.343-0.229-0.343-0.343v-9.143c0-0.229 0.229-0.343 0.343-0.343h3.657c0.229 0 0.343 0.229 0.343 0.343v9.143z"></path>
</svg>
