<!-- Generated by IcoMoon.io -->
<svg version="1.1" xmlns="http://www.w3.org/2000/svg" width="32" height="32" viewBox="0 0 32 32">
<title>gift</title>
<path d="M26.057 7.771h-0.686c0.343-0.571 0.457-1.143 0.457-1.829v-0.343c0-2.171-1.6-3.771-3.771-3.771-2.514 0-4.571 1.257-5.943 3.086-1.257-1.829-3.429-3.086-5.829-3.086-2.171 0-3.886 1.6-3.886 3.771v0.343c0 0.686 0.229 1.257 0.457 1.829h-0.914c-2.286 0-4.229 1.943-4.229 4.229v13.943c0 2.286 1.943 4.229 4.229 4.229h20c2.286 0 4.229-1.943 4.229-4.229v-13.943c0.114-2.286-1.829-4.229-4.114-4.229zM28 12v1.829h-10.857v-3.771h8.914c1.029 0 1.943 0.8 1.943 1.943zM21.943 4.114c0.914 0 1.486 0.571 1.486 1.486v0.343c0 1.029-0.8 1.829-1.829 1.829h-4.343c0.571-2.171 2.4-3.657 4.686-3.657zM8.686 5.943v-0.343c0-0.914 0.571-1.486 1.486-1.486 2.286 0 4.114 1.486 4.686 3.657h-4.343c-0.914 0-1.829-0.8-1.829-1.829zM5.943 10.057h8.914v3.771h-10.857v-1.829c0-1.143 0.914-1.943 1.943-1.943zM4 25.943v-9.829h10.857v11.771h-8.914c-1.029 0-1.943-0.8-1.943-1.943zM26.057 27.886h-8.914v-11.771h10.743v9.829c0.114 1.143-0.8 1.943-1.829 1.943z"></path>
</svg>
