<!-- Generated by IcoMoon.io -->
<svg version="1.1" xmlns="http://www.w3.org/2000/svg" width="32" height="32" viewBox="0 0 32 32">
<title>globe</title>
<path d="M30.629 11.771c-0.686-2.171-1.829-4.114-3.2-5.829v-0.114s-0.114 0-0.114-0.114c-3.886-4.229-9.943-6.171-15.771-4.457-2.286 0.686-4.229 1.829-5.829 3.314-4.229 3.886-6.171 9.943-4.457 15.771 0.571 1.943 1.486 3.543 2.629 5.029v0.114c2.857 3.657 7.429 5.829 12.114 5.829 1.486 0 2.971-0.229 4.343-0.686 2.057-0.571 3.886-1.6 5.486-2.857 4.457-3.543 6.629-9.829 4.8-16zM25.029 25.6l-3.657-4.229c3.2-2.514 6.286-3.771 7.543-4.229-0.114 3.2-1.6 6.171-3.886 8.457zM28.914 14.743c-0.343 0.114-4.457 1.371-9.029 4.914l-2.971-3.429 9.371-7.886c0.914 1.257 1.6 2.629 2.057 4.114 0.343 0.8 0.457 1.486 0.571 2.286zM19.543 3.657c1.943 0.571 3.771 1.6 5.257 2.971l-9.371 7.771-2.286-2.743c2.286-1.943 4.571-4.571 6.286-7.771 0.114-0.114 0.114-0.114 0.114-0.229zM12.114 3.657c1.257-0.343 2.514-0.571 3.771-0.571 0.457 0 0.914 0 1.371 0.114-1.6 2.857-3.543 5.143-5.6 6.857l-3.657-4.229c1.143-1.029 2.629-1.714 4.114-2.171zM6.286 7.314l3.543 4.114c-3.086 2.286-5.943 3.429-7.086 3.886 0.229-2.971 1.486-5.829 3.543-8zM2.857 17.714c0.229-0.114 4.229-1.257 8.571-4.571l2.4 2.743-8.914 7.429c-0.686-1.029-1.143-2.171-1.6-3.429-0.229-0.686-0.457-1.371-0.457-2.171zM6.286 25.143l9.029-7.543 2.971 3.429c-2.171 1.943-4.229 4.343-5.829 7.429 0 0.114-0.114 0.229-0.114 0.343-2.4-0.686-4.457-1.943-6.057-3.657zM19.657 28.8c-1.714 0.457-3.429 0.686-5.143 0.457 1.486-2.629 3.314-4.8 5.143-6.514l3.657 4.229c-1.143 0.8-2.4 1.486-3.657 1.829z"></path>
</svg>
