<!-- Generated by IcoMoon.io -->
<svg version="1.1" xmlns="http://www.w3.org/2000/svg" width="32" height="32" viewBox="0 0 32 32">
<title>gps</title>
<path d="M18.286 16c0 1.262-1.023 2.286-2.286 2.286s-2.286-1.023-2.286-2.286c0-1.262 1.023-2.286 2.286-2.286s2.286 1.023 2.286 2.286z"></path>
<path d="M28.571 14.857h-2.4c-0.571-4.8-4.343-8.571-9.029-9.029v-2.4c0-0.686-0.457-1.143-1.143-1.143s-1.143 0.457-1.143 1.143v2.4c-4.8 0.457-8.571 4.229-9.143 9.029h-2.286c-0.686 0-1.143 0.457-1.143 1.143s0.457 1.143 1.143 1.143h2.286c0.571 4.8 4.343 8.571 9.029 9.029v2.4c0 0.686 0.457 1.143 1.143 1.143s1.143-0.457 1.143-1.143v-2.4c2.286-0.229 4.457-1.257 6.171-2.971s2.629-3.771 2.971-6.171h2.4c0.686 0 1.143-0.457 1.143-1.143 0-0.571-0.457-1.029-1.143-1.029zM17.143 23.886v-1.029c0-0.686-0.457-1.143-1.143-1.143s-1.143 0.457-1.143 1.143v1.029c-3.543-0.457-6.286-3.2-6.857-6.743h1.143c0.686 0 1.143-0.457 1.143-1.143s-0.457-1.143-1.143-1.143h-1.143c0.571-3.543 3.314-6.286 6.857-6.743v1.029c0 0.686 0.457 1.143 1.143 1.143s1.143-0.457 1.143-1.143v-1.029c1.714 0.229 3.314 1.029 4.457 2.286 1.257 1.257 2.057 2.857 2.286 4.457h-1.029c-0.686 0-1.143 0.457-1.143 1.143s0.457 1.143 1.143 1.143h1.029c-0.571 3.543-3.314 6.286-6.743 6.743z"></path>
</svg>
