<!-- Generated by IcoMoon.io -->
<svg version="1.1" xmlns="http://www.w3.org/2000/svg" width="32" height="32" viewBox="0 0 32 32">
<title>graph-1</title>
<path d="M5.829 13.943c-0.686 0-1.143 0.457-1.143 1.143v14.743c0 0.686 0.457 1.143 1.143 1.143s1.143-0.457 1.143-1.143v-14.743c0-0.686-0.457-1.143-1.143-1.143zM16.457 1.029c-0.686 0-1.143 0.457-1.143 1.143v27.657c0 0.686 0.457 1.143 1.143 1.143s1.143-0.457 1.143-1.143v-27.657c0-0.686-0.457-1.143-1.143-1.143zM26.171 22.171c-0.686 0-1.143 0.457-1.143 1.143v6.514c0 0.686 0.457 1.143 1.143 1.143s1.143-0.457 1.143-1.143v-6.514c0-0.686-0.457-1.143-1.143-1.143z"></path>
</svg>
