<!-- Generated by IcoMoon.io -->
<svg version="1.1" xmlns="http://www.w3.org/2000/svg" width="32" height="32" viewBox="0 0 32 32">
<title>graph</title>
<path d="M16.343 16.229c0.229 0.229 0.457 0.343 0.8 0.343h0.229l12.8-2.514c0.343-0.114 0.571-0.229 0.686-0.457s0.229-0.571 0.114-0.914c-1.257-5.6-5.6-10.171-11.314-11.543-0.343-0.114-0.686 0-0.914 0.114-0.229 0.229-0.457 0.457-0.457 0.8l-2.286 13.257c-0.114 0.343 0.114 0.686 0.343 0.914zM20.343 3.657c3.886 1.371 6.857 4.457 8.114 8.343l-9.943 1.943 1.829-10.286z"></path>
<path d="M30.171 14.857c-0.686 0-1.143 0.457-1.143 1.143 0 7.2-5.829 13.029-13.029 13.029s-13.029-5.829-13.029-13.029 5.829-13.029 13.029-13.029c0.686 0 1.143-0.457 1.143-1.143s-0.457-1.143-1.143-1.143c-8.457 0-15.314 6.857-15.314 15.314s6.857 15.314 15.314 15.314 15.314-6.857 15.314-15.314c0-0.686-0.457-1.143-1.143-1.143z"></path>
</svg>
