<!-- Generated by IcoMoon.io -->
<svg version="1.1" xmlns="http://www.w3.org/2000/svg" width="32" height="32" viewBox="0 0 32 32">
<title>heart</title>
<path d="M16 29.486h-0.229c-1.257-0.229-9.143-3.429-13.257-9.486-2.286-3.314-2.971-6.857-2.057-10.514 0.914-3.886 3.429-6.4 6.857-6.857 3.314-0.457 6.743 1.029 8.571 3.543 1.829-2.4 5.257-3.886 8.571-3.543 3.543 0.457 6.057 2.971 6.857 6.857 0.914 3.657 0.114 7.2-2.057 10.514-4.114 6.057-12 9.371-13.143 9.486h-0.114zM8.571 4.8h-0.8c-2.629 0.343-4.343 2.171-5.029 5.143s-0.114 5.829 1.6 8.571c3.314 5.143 10.171 8.229 11.657 8.686 1.486-0.457 8.229-3.543 11.543-8.686 1.714-2.743 2.286-5.6 1.6-8.457-0.686-2.971-2.4-4.686-4.914-5.029-2.743-0.343-5.714 1.143-6.857 3.314 0 0 0 0.114-0.114 0.114-0.343 0.571-0.914 0.8-1.6 0.8-0.571-0.114-1.029-0.457-1.143-0.914-1.029-2.171-3.543-3.543-5.943-3.543z"></path>
</svg>
