<!-- Generated by IcoMoon.io -->
<svg version="1.1" xmlns="http://www.w3.org/2000/svg" width="32" height="32" viewBox="0 0 32 32">
<title>hold-cart</title>
<path d="M13.714 25.714c0 1.262-1.023 2.286-2.286 2.286s-2.286-1.023-2.286-2.286c0-1.262 1.023-2.286 2.286-2.286s2.286 1.023 2.286 2.286z"></path>
<path d="M26.286 25.714c0 1.262-1.023 2.286-2.286 2.286s-2.286-1.023-2.286-2.286c0-1.262 1.023-2.286 2.286-2.286s2.286 1.023 2.286 2.286z"></path>
<path d="M12.114 22.286c-1.6 0-2.971-1.143-3.314-2.743l-1.943-9.6v-0.114l-0.914-4.8h-3.657c-0.686 0-1.143-0.457-1.143-1.143s0.457-1.143 1.143-1.143h4.571c0.571 0 1.029 0.343 1.143 0.914l0.914 4.8h18.514c0.343 0 0.686 0.114 0.914 0.457s0.229 0.686 0.229 1.029l-1.829 9.6c-0.343 1.6-1.714 2.743-3.429 2.743h-11.2zM9.371 10.857l1.6 8.229c0.114 0.571 0.571 0.914 1.143 0.914h11.086c0.571 0 1.029-0.343 1.143-0.914l1.6-8.229h-16.571z"></path>
<path d="M16 18.857c-0.686 0-1.143-0.457-1.143-1.143v-4.571c0-0.686 0.457-1.143 1.143-1.143s1.143 0.457 1.143 1.143v4.571c0 0.686-0.571 1.143-1.143 1.143zM16 12.571v0z"></path>
<path d="M19.429 18.857c-0.686 0-1.143-0.457-1.143-1.143v-4.571c0-0.686 0.457-1.143 1.143-1.143s1.143 0.457 1.143 1.143v4.571c0 0.686-0.571 1.143-1.143 1.143zM19.429 12.571v0z"></path>
</svg>
