<!-- Generated by IcoMoon.io -->
<svg version="1.1" xmlns="http://www.w3.org/2000/svg" width="32" height="32" viewBox="0 0 32 32">
<title>home</title>
<path d="M28.686 10.514l-10.4-7.771c-0.343-0.571-1.029-0.914-1.714-1.029-0.914-0.114-1.943 0.114-2.857 0.8l-10.4 7.886c-1.029 0.8-1.6 1.943-1.6 3.086v13.029c0 2.057 1.829 3.886 3.886 3.886h4.914c1.143 0 2.171-1.029 2.171-2.171v-7.314c0-0.8 0.8-1.6 1.6-1.6h3.429c0.8 0 1.6 0.8 1.6 1.6v7.314c0 1.143 1.029 2.171 2.171 2.171h4.914c2.057 0 3.886-1.829 3.886-3.886v-12.914c0-1.371-0.571-2.514-1.6-3.086zM28 26.514c0 0.8-0.8 1.6-1.6 1.6h-4.8v-7.2c0-2.057-1.829-3.886-3.886-3.886h-3.429c-2.057 0-3.886 1.829-3.886 3.886v7.2h-4.8c-0.8 0-1.6-0.8-1.6-1.6v-13.029c0-0.457 0.229-0.914 0.686-1.257l10.514-7.886c0.343-0.229 0.686-0.343 1.029-0.343 0.229 0 0.229 0.114 0.229 0.114 0.114 0.114 0.114 0.229 0.229 0.343l10.514 7.886c0.343 0.229 0.686 0.686 0.686 1.257v12.914z"></path>
<path d="M21.257 11.657h-10.057c-0.686 0-1.143 0.457-1.143 1.143s0.457 1.143 1.143 1.143h10.057c0.686 0 1.143-0.457 1.143-1.143s-0.457-1.143-1.143-1.143z"></path>
</svg>
