<!-- Generated by IcoMoon.io -->
<svg version="1.1" xmlns="http://www.w3.org/2000/svg" width="32" height="32" viewBox="0 0 32 32">
<title>info</title>
<path d="M16 1.029c-8.229 0-14.971 6.743-14.971 14.971s6.743 14.971 14.971 14.971 14.971-6.743 14.971-14.971-6.743-14.971-14.971-14.971zM16 28.686c-6.971 0-12.686-5.714-12.686-12.686s5.714-12.686 12.686-12.686 12.686 5.714 12.686 12.686-5.714 12.686-12.686 12.686z"></path>
<path d="M16 13.143c-0.686 0-1.143 0.457-1.143 1.143v7.886c0 0.686 0.457 1.143 1.143 1.143s1.143-0.457 1.143-1.143v-7.886c0-0.686-0.457-1.143-1.143-1.143zM16 8.686c-0.686 0-1.143 0.457-1.143 1.143v0.229c0 0.686 0.457 1.143 1.143 1.143s1.143-0.457 1.143-1.143v-0.229c0-0.686-0.457-1.143-1.143-1.143z"></path>
</svg>
