<!-- Generated by IcoMoon.io -->
<svg version="1.1" xmlns="http://www.w3.org/2000/svg" width="32" height="32" viewBox="0 0 32 32">
<title>language</title>
<path d="M16 1.143c-8.229 0-14.857 6.629-14.857 14.857s6.629 14.857 14.857 14.857 14.857-6.629 14.857-14.857-6.629-14.857-14.857-14.857zM28.457 14.857l-4.114-0.114c-0.571-4.229-2.743-8.229-5.143-10.857 5.029 1.257 8.8 5.6 9.257 10.971zM17.143 5.029c2.286 2.286 4.229 5.943 4.914 9.714l-4.914-0.114v-9.6zM14.857 16.914v10.286c-3.314-2.743-5.029-6.057-5.029-10.057v-0.343l5.029 0.114zM10.057 14.514c0.686-3.657 2.629-7.2 4.8-9.486v9.6l-4.8-0.114zM17.143 27.2v-10.286l5.029 0.114v0.114c0 3.886-1.714 7.314-5.029 10.057zM7.086 7.086c1.6-1.6 3.543-2.743 5.714-3.314-2.4 2.743-4.457 6.514-5.143 10.629l-4.114-0.114c0.343-2.629 1.6-5.257 3.543-7.2zM3.429 16.686l4 0.114v0.457c0 3.086 1.029 7.2 4.914 10.857-4.914-1.6-8.571-6.057-8.914-11.429zM19.657 28c3.886-3.657 4.914-7.886 4.914-10.857v-0.114l4 0.114c-0.571 5.143-4.114 9.486-8.914 10.857z"></path>
</svg>
