<!-- Generated by IcoMoon.io -->
<svg version="1.1" xmlns="http://www.w3.org/2000/svg" width="32" height="32" viewBox="0 0 32 32">
<title>language-1</title>
<path d="M9.943 6.514c-0.114-0.457-0.571-0.686-1.029-0.686s-0.914 0.229-1.029 0.686l-6.743 18.4c-0.229 0.571 0.114 1.257 0.686 1.486s1.257-0.114 1.486-0.686l1.829-5.029h5.143c0.686 0 1.143-0.457 1.143-1.143s-0.457-1.143-1.143-1.143h-4.343l2.971-8.114 5.6 15.429c0.114 0.457 0.571 0.8 1.029 0.8 0.114 0 0.229 0 0.343-0.114 0.571-0.229 0.914-0.914 0.686-1.486l-6.629-18.4zM29.714 8.229h-4.229v-2.514c0-0.686-0.457-1.143-1.143-1.143s-1.143 0.457-1.143 1.143v2.514h-6.171c-0.686 0-1.143 0.457-1.143 1.143s0.457 1.143 1.143 1.143h9.257c-0.229 3.657-1.714 6.514-3.314 8.686-1.943-2.629-2.4-5.486-2.4-5.486-0.114-0.571-0.686-1.029-1.257-0.914s-1.029 0.686-0.914 1.257c0 0.229 0.686 3.886 3.086 6.971-2.057 2.171-4 3.2-4 3.2-0.571 0.343-0.8 1.029-0.457 1.6 0.229 0.343 0.571 0.571 1.029 0.571 0.229 0 0.343 0 0.571-0.114s2.286-1.257 4.457-3.543c1.029 1.029 2.4 1.829 4 2.4 0.114 0 0.229 0.114 0.343 0.114 0.457 0 0.914-0.343 1.029-0.8 0.229-0.571-0.114-1.257-0.686-1.486-1.257-0.457-2.286-1.143-3.2-1.943 2.057-2.514 3.886-6.057 4.114-10.514h1.143c0.686 0 1.143-0.457 1.143-1.143s-0.571-1.143-1.257-1.143z"></path>
</svg>
