<!-- Generated by IcoMoon.io -->
<svg version="1.1" xmlns="http://www.w3.org/2000/svg" width="32" height="32" viewBox="0 0 32 32">
<title>laptop</title>
<path d="M28.686 4h-25.371c-1.486 0-2.743 1.257-2.743 2.743v15.086c0 1.486 1.257 2.743 2.743 2.743h25.371c1.486 0 2.743-1.257 2.743-2.743v-15.086c0-1.486-1.257-2.743-2.743-2.743zM29.143 21.829c0 0.229-0.229 0.457-0.457 0.457h-25.371c-0.229 0-0.457-0.229-0.457-0.457v-15.086c0-0.229 0.229-0.457 0.457-0.457h25.371c0.229 0 0.457 0.229 0.457 0.457v15.086zM30.286 25.714h-28.571c-0.686 0-1.143 0.457-1.143 1.143s0.457 1.143 1.143 1.143h28.571c0.686 0 1.143-0.457 1.143-1.143s-0.571-1.143-1.143-1.143z"></path>
</svg>
