<!-- Generated by IcoMoon.io -->
<svg version="1.1" xmlns="http://www.w3.org/2000/svg" width="32" height="32" viewBox="0 0 32 32">
<title>limit</title>
<path d="M16 11.657c-0.686 0-1.143 0.457-1.143 1.143v7.886c0 0.686 0.457 1.143 1.143 1.143s1.143-0.457 1.143-1.143v-7.886c0-0.571-0.571-1.143-1.143-1.143zM16 22.514c-0.686 0-1.143 0.457-1.143 1.143v0.343c0 0.686 0.457 1.143 1.143 1.143s1.143-0.457 1.143-1.143v-0.343c0-0.571-0.571-1.143-1.143-1.143z"></path>
<path d="M31.429 25.143l-13.257-21.029c-0.457-0.8-1.257-1.257-2.171-1.257s-1.714 0.457-2.171 1.257l-13.257 20.914c-0.457 0.8-0.457 1.829 0 2.629s1.257 1.257 2.171 1.257l26.514 0.114c0.914 0 1.829-0.571 2.286-1.371 0.343-0.686 0.343-1.714-0.114-2.514zM29.486 26.629c0 0.114-0.114 0.114-0.229 0.114h-26.514c-0.114 0-0.114-0.114-0.114-0.114s-0.114-0.229 0-0.343l13.143-20.914c0.114-0.229 0.343-0.229 0.457 0l13.257 21.029c0.114 0.114 0 0.229 0 0.229z"></path>
</svg>
