<!-- Generated by IcoMoon.io -->
<svg version="1.1" xmlns="http://www.w3.org/2000/svg" width="32" height="32" viewBox="0 0 32 32">
<title>lipstick</title>
<path d="M20.571 16.343v-14.629c0-0.686-0.457-1.143-1.143-1.143-4.457 0-8 3.543-8 8v7.771c-0.686 0.343-1.143 1.143-1.143 1.943v7.429c0 3.2 2.514 5.714 5.714 5.714s5.714-2.514 5.714-5.714v-7.429c0-0.8-0.457-1.486-1.143-1.943zM13.714 8.571c0-2.743 1.943-5.029 4.571-5.6v13.029h-4.571v-7.429zM19.429 25.714c0 1.943-1.486 3.429-3.429 3.429s-3.429-1.486-3.429-3.429v-7.429h6.857v7.429z"></path>
</svg>
