<!-- Generated by IcoMoon.io -->
<svg version="1.1" xmlns="http://www.w3.org/2000/svg" width="32" height="32" viewBox="0 0 32 32">
<title>lock-2</title>
<path d="M24.914 11.086h-15.2v-1.714c0-3.429 2.971-6.4 6.4-6.4 2.743 0 5.143 1.829 6.057 4.343 0 0.114 0.114 0.229 0.114 0.229 0.571 1.143 2.514 0.457 1.943-0.914-1.143-3.429-4.457-5.943-8.229-5.943-4.686 0-8.686 4-8.686 8.686v1.714c-2.514 0.114-4.457 2.057-4.457 4.571v11.086c0 2.514 2.057 4.571 4.571 4.571h17.029c2.514 0 4.571-2.057 4.571-4.571v-11.086c0.114-2.4-1.829-4.343-4.114-4.571zM26.857 26.743c0 1.257-1.029 2.286-2.286 2.286h-17.029c-1.257 0-2.286-1.029-2.286-2.286v-11.086c0-1.257 1.029-2.286 2.286-2.286h17.029c1.143 0 2.286 1.143 2.286 2.286v11.086z"></path>
</svg>
