<!-- Generated by IcoMoon.io -->
<svg version="1.1" xmlns="http://www.w3.org/2000/svg" width="32" height="32" viewBox="0 0 32 32">
<title>lock-1</title>
<path d="M24.686 11.086s0.114 0 0 0v-1.714c0-4.686-4-8.686-8.686-8.686s-8.686 4-8.686 8.686v1.714c-2.514 0.114-4.457 2.057-4.457 4.571v11.086c0 2.514 2.057 4.571 4.571 4.571h17.029c2.514 0 4.571-2.057 4.571-4.571v-11.086c0-2.4-1.943-4.457-4.343-4.571zM9.6 9.371c0-3.429 2.971-6.4 6.4-6.4s6.4 2.971 6.4 6.4v1.714h-12.8v-1.714zM26.743 26.743c0 1.257-1.029 2.286-2.286 2.286h-16.914c-1.257 0-2.286-1.029-2.286-2.286v-11.086c0-1.257 1.029-2.286 2.286-2.286h17.029c1.143 0 2.286 1.143 2.286 2.286v11.086z"></path>
<path d="M16.114 23.2c-1.143 0-2.057 0.914-2.057 2.057s0.914 2.057 2.057 2.057 2.057-0.914 2.057-2.057c-0.114-1.143-0.914-2.057-2.057-2.057z"></path>
</svg>
