<!-- Generated by IcoMoon.io -->
<svg version="1.1" xmlns="http://www.w3.org/2000/svg" width="32" height="32" viewBox="0 0 32 32">
<title>map</title>
<path d="M28 6.171l-5.829-1.486c-1.143-0.229-2.4-0.229-3.657 0l-5.6 1.486c-0.914 0.229-1.714 0.229-2.514 0l-4.8-1.257c-0.914-0.229-1.829 0-2.629 0.457-0.686 0.571-1.143 1.257-1.143 2.171v15.657c0 1.143 0.8 2.171 2.171 2.629l5.829 1.486c0.571 0.114 1.143 0.229 1.829 0.229 0.571 0 1.257-0.114 1.829-0.229l5.6-1.486c0.914-0.229 1.714-0.229 2.514 0l4.8 1.257c0.914 0.229 1.943 0.114 2.629-0.457s1.143-1.257 1.143-2.171v-15.771c0-1.029-0.8-2.286-2.171-2.514zM4.686 23.657c-0.343-0.114-0.457-0.343-0.457-0.457v-15.657c0-0.114 0.114-0.229 0.229-0.343 0 0 0.114-0.114 0.343-0.114h0.229l4.8 1.257c0.229 0 0.343 0.114 0.571 0.114v16.571h-0.114l-5.6-1.371zM18.514 23.543l-5.6 1.486h-0.229v-16.457c0.229 0 0.457-0.114 0.8-0.114l5.6-1.486c0.114-0.114 0.229-0.114 0.343-0.114v16.571c-0.229 0-0.571 0.114-0.914 0.114zM27.886 24.457c0 0.114-0.114 0.229-0.229 0.343-0.229 0.114-0.457 0.114-0.686 0.114l-4.8-1.257c-0.114 0-0.229 0-0.343-0.114v-16.571l5.714 1.486h0.114c0.229 0 0.229 0.229 0.229 0.229v15.771z"></path>
</svg>
