<!-- Generated by IcoMoon.io -->
<svg version="1.1" xmlns="http://www.w3.org/2000/svg" width="32" height="32" viewBox="0 0 32 32">
<title>message-1</title>
<path d="M27.086 4.229h-22.171c-1.714 0-3.2 1.486-3.2 3.2v17.143c0 1.257 0.686 2.286 1.714 2.857 0.457 0.229 0.914 0.343 1.486 0.343 0.686 0 1.371-0.229 1.943-0.686l2.514-1.943 0.114-0.114c0.114-0.114 0.229-0.114 0.457-0.114h17.143c1.714 0 2.971-1.257 3.2-3.2v-14.286c0-1.714-1.486-3.2-3.2-3.2zM27.086 22.629h-17.143c-0.8 0-1.486 0.229-2.057 0.686l-2.4 1.943c-0.343 0.229-0.686 0.229-1.029 0.114-0.114-0.114-0.457-0.343-0.457-0.8v-17.143c0-0.457 0.457-0.914 0.914-0.914h22.171c0.457 0 0.914 0.457 0.914 0.914v14.171c0 0.571-0.343 1.029-0.914 1.029z"></path>
</svg>
