<!-- Generated by IcoMoon.io -->
<svg version="1.1" xmlns="http://www.w3.org/2000/svg" width="32" height="32" viewBox="0 0 32 32">
<title>message</title>
<path d="M26.971 28.457c-0.457 0-0.914-0.229-1.257-0.457l-3.086-2.857c-0.229-0.229-0.457-0.343-0.8-0.343h-15.2c-1.943 0-3.543-1.6-3.543-3.543v-11.886c0-1.943 1.6-3.543 3.543-3.543h18.629c1.943 0 3.543 1.6 3.543 3.543v17.143c0 0.8-0.457 1.486-1.143 1.714-0.229 0.114-0.457 0.229-0.686 0.229zM6.629 8.114c-0.686 0-1.257 0.571-1.257 1.257v11.886c0 0.686 0.571 1.257 1.257 1.257h15.2c0.914 0 1.714 0.343 2.4 0.914l2.286 2.171v-16.229c0-0.686-0.571-1.257-1.257-1.257h-18.629z"></path>
<path d="M23.314 11.886h-14.057c-0.571 0-1.029 0.457-1.029 1.029v0.229c0 0.571 0.457 1.029 1.029 1.029h14.057c0.571 0 1.029-0.457 1.029-1.029v-0.229c0-0.457-0.457-1.029-1.029-1.029zM15.886 16.914h-6.629c-0.571 0-1.029 0.457-1.029 1.029v0.229c0 0.571 0.457 1.029 1.029 1.029h6.629c0.571 0 1.029-0.457 1.029-1.029v-0.229c0-0.571-0.457-1.029-1.029-1.029z"></path>
</svg>
