<!-- Generated by IcoMoon.io -->
<svg version="1.1" xmlns="http://www.w3.org/2000/svg" width="32" height="32" viewBox="0 0 32 32">
<title>mobile</title>
<path d="M24.114 0.571h-16.229c-1.486 0-2.743 1.257-2.743 2.743v25.371c0 1.486 1.257 2.743 2.743 2.743h16.229c1.486 0 2.743-1.257 2.743-2.743v-25.371c0-1.486-1.257-2.743-2.743-2.743zM24.571 28.686c0 0.229-0.229 0.457-0.457 0.457h-16.229c-0.229 0-0.457-0.229-0.457-0.457v-25.371c0-0.229 0.229-0.457 0.457-0.457h16.229c0.229 0 0.457 0.229 0.457 0.457v25.371z"></path>
<path d="M17.143 4h-2.286c-0.686 0-1.143 0.457-1.143 1.143s0.457 1.143 1.143 1.143h2.286c0.686 0 1.143-0.457 1.143-1.143s-0.571-1.143-1.143-1.143z"></path>
<path d="M17.714 26.286c0 0.947-0.767 1.714-1.714 1.714s-1.714-0.767-1.714-1.714c0-0.947 0.768-1.714 1.714-1.714s1.714 0.767 1.714 1.714z"></path>
</svg>
