<!-- Generated by IcoMoon.io -->
<svg version="1.1" xmlns="http://www.w3.org/2000/svg" width="32" height="32" viewBox="0 0 32 32">
<title>neckless</title>
<path d="M30.286 4.457c-0.686 0-1.143 0.457-1.143 1.143 0 1.714-0.343 3.314-0.914 4.914-2.057 5.029-6.857 8.229-12.229 8.229s-10.171-3.314-12.229-8.343c-0.571-1.6-0.914-3.2-0.914-4.914 0-0.686-0.457-1.143-1.143-1.143s-1.143 0.457-1.143 1.143c0 1.943 0.343 3.886 1.143 5.714 1.371 3.314 3.657 5.943 6.629 7.657-0.343 0.343-0.571 0.914-0.571 1.486 0 1.257 1.029 2.286 2.286 2.286s2.171-0.914 2.286-2.171c0.229 0 0.457 0.114 0.686 0.114-0.457 0.686-0.8 1.6-0.8 2.514 0 2.514 2.057 4.457 4.457 4.457s4.457-2.057 4.457-4.457c0-1.029-0.343-2.057-1.029-2.857l1.029-0.343v0.343c0 1.257 1.029 2.286 2.286 2.286s2.286-1.029 2.286-2.286c0-0.914-0.457-1.6-1.257-2.057 2.514-1.714 4.571-4.114 5.714-7.086 0.686-1.829 1.143-3.771 1.143-5.714 0.114-0.457-0.457-0.914-1.029-0.914zM16.8 25.371c-1.257 0-2.171-1.029-2.171-2.171s1.029-2.171 2.171-2.171 2.171 1.029 2.171 2.171-0.914 2.171-2.171 2.171z"></path>
</svg>
