<!-- Generated by IcoMoon.io -->
<svg version="1.1" xmlns="http://www.w3.org/2000/svg" width="32" height="32" viewBox="0 0 32 32">
<title>next</title>
<path d="M8.8 7.771c-0.457-0.457-1.143-0.457-1.6 0s-0.457 1.143 0 1.6l6.514 6.629-6.514 6.514c-0.229 0.229-0.343 0.571-0.343 0.914s0.114 0.571 0.343 0.8c0.457 0.457 1.143 0.457 1.6 0l6.514-6.514c0.914-0.914 0.914-2.514 0-3.314l-6.514-6.629z"></path>
<path d="M24.457 14.286l-6.514-6.514c-0.457-0.457-1.143-0.457-1.6 0s-0.457 1.143 0 1.6l6.514 6.629-6.514 6.514c-0.229 0.229-0.343 0.571-0.343 0.8s0.114 0.571 0.343 0.8c0.457 0.457 1.143 0.457 1.6 0l6.514-6.514c0.914-0.8 0.914-2.4 0-3.314z"></path>
</svg>
