<!-- Generated by IcoMoon.io -->
<svg version="1.1" xmlns="http://www.w3.org/2000/svg" width="32" height="32" viewBox="0 0 32 32">
<title>notification</title>
<path d="M28.914 20.8l-0.343-0.914c-0.457-1.486-0.914-3.2-0.914-4.914 0-4.571-1.257-8-3.771-10.4-3.2-3.086-7.314-3.2-7.886-3.2s-4.457-0.114-7.657 2.857c-2.743 2.629-4.114 6.629-4.114 12 0 0.914-0.229 1.943-0.457 2.971l-0.571 1.714c-0.686 1.943 0.114 4.114 1.714 5.143 0.571 0.457 1.371 0.686 2.171 0.686h4.457c0.229 2.286 2.171 4 4.571 4s4.229-1.714 4.571-4h4.343c0.8 0 1.6-0.343 2.171-0.8 1.6-1.257 2.286-3.314 1.714-5.143zM16.114 28.343c-1.143 0-1.943-0.686-2.171-1.714h4.343c-0.229 0.914-1.029 1.714-2.171 1.714zM25.943 23.886c-0.114 0-0.114 0.114-0.229 0.114-0.114 0.114-0.343 0.229-0.686 0.229h-17.943c-0.457 0-0.686-0.114-0.914-0.229l-0.114-0.114c-0.686-0.343-1.029-1.486-0.686-2.4l0.571-1.714c0.457-1.257 0.686-2.514 0.686-3.657 0-4.686 1.143-8.114 3.429-10.171 2.286-2.171 5.029-2.286 5.829-2.286h0.343s3.657-0.114 6.286 2.514c1.943 1.943 2.971 4.914 2.971 8.8 0 2.057 0.571 4 1.029 5.6l0.229 0.8c0.229 1.029-0.114 2.057-0.8 2.514z"></path>
</svg>
