<!-- Generated by IcoMoon.io -->
<svg version="1.1" xmlns="http://www.w3.org/2000/svg" width="32" height="32" viewBox="0 0 32 32">
<title>num-pad</title>
<path d="M6.857 10.857c-2.171 0-4-1.829-4-4s1.829-4 4-4 4 1.829 4 4-1.829 4-4 4zM6.857 5.143c-0.914 0-1.714 0.8-1.714 1.714s0.8 1.714 1.714 1.714 1.714-0.8 1.714-1.714-0.8-1.714-1.714-1.714z"></path>
<path d="M6.857 20c-2.171 0-4-1.829-4-4s1.829-4 4-4 4 1.829 4 4-1.829 4-4 4zM6.857 14.286c-0.914 0-1.714 0.8-1.714 1.714s0.8 1.714 1.714 1.714 1.714-0.8 1.714-1.714-0.8-1.714-1.714-1.714z"></path>
<path d="M6.857 29.143c-2.171 0-4-1.829-4-4s1.829-4 4-4 4 1.829 4 4-1.829 4-4 4zM6.857 23.429c-0.914 0-1.714 0.8-1.714 1.714s0.8 1.714 1.714 1.714 1.714-0.8 1.714-1.714-0.8-1.714-1.714-1.714z"></path>
<path d="M16 10.857c-2.171 0-4-1.829-4-4s1.829-4 4-4 4 1.829 4 4c0 1.029-0.457 2.057-1.143 2.857-0.8 0.686-1.829 1.143-2.857 1.143zM16 5.143c-0.914 0-1.714 0.8-1.714 1.714s0.8 1.714 1.714 1.714 1.714-0.8 1.714-1.714-0.8-1.714-1.714-1.714z"></path>
<path d="M16 20c-2.171 0-4-1.829-4-4s1.829-4 4-4 4 1.829 4 4-1.829 4-4 4zM16 14.286c-0.914 0-1.714 0.8-1.714 1.714s0.8 1.714 1.714 1.714 1.714-0.8 1.714-1.714-0.8-1.714-1.714-1.714z"></path>
<path d="M16 29.143c-2.171 0-4-1.829-4-4s1.829-4 4-4 4 1.829 4 4-1.829 4-4 4zM16 23.429c-0.914 0-1.714 0.8-1.714 1.714s0.8 1.714 1.714 1.714 1.714-0.8 1.714-1.714-0.8-1.714-1.714-1.714z"></path>
<path d="M25.143 10.857c-2.171 0-4-1.829-4-4s1.829-4 4-4 4 1.829 4 4c0 1.029-0.457 2.057-1.143 2.857-0.8 0.686-1.829 1.143-2.857 1.143zM25.143 5.143c-0.914 0-1.714 0.8-1.714 1.714s0.8 1.714 1.714 1.714 1.714-0.8 1.714-1.714-0.8-1.714-1.714-1.714z"></path>
<path d="M25.143 20c-2.171 0-4-1.829-4-4s1.829-4 4-4 4 1.829 4 4-1.829 4-4 4zM25.143 14.286c-0.914 0-1.714 0.8-1.714 1.714s0.8 1.714 1.714 1.714 1.714-0.8 1.714-1.714-0.8-1.714-1.714-1.714z"></path>
<path d="M25.143 29.143c-2.171 0-4-1.829-4-4s1.829-4 4-4 4 1.829 4 4-1.829 4-4 4zM25.143 23.429c-0.914 0-1.714 0.8-1.714 1.714s0.8 1.714 1.714 1.714 1.714-0.8 1.714-1.714-0.8-1.714-1.714-1.714z"></path>
</svg>
