<!-- Generated by IcoMoon.io -->
<svg version="1.1" xmlns="http://www.w3.org/2000/svg" width="32" height="32" viewBox="0 0 32 32">
<title>percentage</title>
<path d="M28.229 3.771c-0.457-0.457-1.143-0.457-1.6 0l-22.857 22.857c-0.457 0.457-0.457 1.143 0 1.6 0.229 0.229 0.457 0.343 0.8 0.343s0.571-0.114 0.8-0.343l22.857-22.857c0.457-0.457 0.457-1.143 0-1.6zM8.686 13.029c2.514 0 4.457-1.943 4.457-4.457s-1.943-4.457-4.457-4.457-4.457 1.943-4.457 4.457 1.943 4.457 4.457 4.457zM8.686 6.4c1.143 0 2.171 1.029 2.171 2.171s-1.029 2.171-2.171 2.171-2.171-1.029-2.171-2.171 1.029-2.171 2.171-2.171zM23.314 18.857c-2.514 0-4.457 2.057-4.457 4.457s1.943 4.457 4.457 4.457 4.457-2.057 4.457-4.457-1.943-4.457-4.457-4.457zM23.314 25.486c-1.143 0-2.171-1.029-2.171-2.171s1.029-2.171 2.171-2.171 2.171 1.029 2.171 2.171-1.029 2.171-2.171 2.171z"></path>
</svg>
