<!-- Generated by IcoMoon.io -->
<svg version="1.1" xmlns="http://www.w3.org/2000/svg" width="32" height="32" viewBox="0 0 32 32">
<title>phone</title>
<path d="M28.571 22.857c0-0.114-0.114-0.114-0.114-0.229l-4.114-4.343c-0.229-0.229-0.457-0.457-0.8-0.457-0.8-0.114-1.6 0.343-2.743 1.714-0.457 0.571-1.029 0.8-1.829 0.914-1.371 0.114-3.086-0.8-4.914-2.286-1.143-1.029-1.714-2.286-1.6-3.543 0.114-1.714 1.257-3.086 1.6-3.429 0.686-0.571 1.029-1.143 1.029-1.6 0.114-1.029-0.457-1.829-0.571-1.943 0 0 0-0.114-0.114-0.114l-3.314-3.429c-1.257-1.486-2.971-1.371-3.771-1.029 0 0-0.114 0-0.114 0.114-0.114 0-3.543 2.057-4.114 6.4-0.571 3.771 1.257 8 5.371 12.343 4.229 4.571 8.343 6.971 12.457 7.2h0.457c3.429 0 5.714-1.714 6.171-2.057 0.343-0.229 1.143-0.8 1.371-1.829 0.114-0.571 0.229-1.371-0.343-2.4zM26.286 25.029c-0.114 0-0.114 0.114-0.229 0.114-0.229 0.229-6.4 5.6-16-4.8-3.543-3.886-5.143-7.429-4.8-10.514 0.229-0.686 0.457-1.371 0.686-1.943l2.743 2.743c0.229 0.229 0.571 0.343 0.8 0.343s0.571-0.229 0.8-0.457c0.457-0.457 0.457-1.143 0-1.6l-2.971-2.971c0.457-0.457 0.8-0.686 0.914-0.8 0.114 0 0.686-0.114 1.143 0.457l3.314 3.314c0 0.114 0.114 0.114 0.114 0.229l-0.114 0.114c-0.914 0.686-2.4 2.743-2.514 5.143-0.114 1.943 0.686 3.771 2.4 5.257 2.286 2.057 4.571 3.086 6.629 2.971 0.229 0 0.457-0.114 0.686-0.114l2.971 3.086c0.229 0.229 0.571 0.343 0.8 0.343 0.343 0 0.571-0.114 0.8-0.343 0.457-0.457 0.457-1.143 0-1.6l-2.514-2.629c0.114-0.114 0.343-0.229 0.457-0.457 0.229-0.343 0.457-0.571 0.686-0.686l3.543 3.771c0.114 0.229 0.114 0.343 0.114 0.457-0.114 0.343-0.343 0.571-0.457 0.571z"></path>
</svg>
