<!-- Generated by IcoMoon.io -->
<svg version="1.1" xmlns="http://www.w3.org/2000/svg" width="32" height="32" viewBox="0 0 32 32">
<title>picture</title>
<path d="M25.829 5.143h-19.657c-2.514 0-4.571 2.057-4.571 4.571v12.571c0 2.514 2.057 4.571 4.571 4.571h19.543c2.514 0 4.571-2.057 4.571-4.571v-12.571c0.114-2.514-1.943-4.571-4.457-4.571zM6.171 7.429h19.543c1.257 0 2.286 1.029 2.286 2.286v9.029l-3.771-2.629c-0.457-0.229-0.914-0.229-1.371 0l-4.571 3.429-5.029-4.686c-0.457-0.343-1.029-0.457-1.486-0.114l-7.886 6.057v-11.086c0-1.257 1.029-2.286 2.286-2.286zM25.829 24.571h-19.657c-0.8 0-1.486-0.457-1.943-1.143l8.114-6.286 5.029 4.686c0.457 0.343 1.029 0.457 1.486 0.114l4.686-3.543 4.457 3.086v0.8c0.114 1.257-0.914 2.286-2.171 2.286z"></path>
<path d="M19.086 12.914c0.914 0 1.714-0.8 1.714-1.714s-0.8-1.714-1.714-1.714-1.714 0.8-1.714 1.714 0.686 1.714 1.714 1.714zM19.086 10.629c0.343 0 0.571 0.229 0.571 0.571s-0.229 0.571-0.571 0.571-0.571-0.229-0.571-0.571 0.229-0.571 0.571-0.571z"></path>
</svg>
