<!-- Generated by IcoMoon.io -->
<svg version="1.1" xmlns="http://www.w3.org/2000/svg" width="32" height="32" viewBox="0 0 32 32">
<title>play</title>
<path d="M16 28.571c-6.971 0-12.571-5.6-12.571-12.571s5.6-12.571 12.571-12.571 12.571 5.6 12.571 12.571c0 3.314-1.371 6.514-3.657 8.914s-5.6 3.657-8.914 3.657zM16 5.714c-5.714 0-10.286 4.571-10.286 10.286s4.571 10.286 10.286 10.286 10.286-4.571 10.286-10.286-4.571-10.286-10.286-10.286z"></path>
<path d="M21.143 14.971l-7.2-4.8h-0.229c-0.114 0-0.229-0.114-0.343-0.114s-0.229 0-0.343 0.114h-0.114c-0.114 0-0.229 0.114-0.343 0.114l-0.229 0.229v0.114c0 0.114-0.114 0.114-0.114 0.229v9.486c0 0.114 0 0.914 0.229 1.143 0.343 0.571 1.029 0.686 1.486 0.343l7.2-4.8c1.714-1.029 0.229-1.829 0-2.057zM14.514 13.257l4 2.743-4 2.743v-5.486z"></path>
</svg>
