<!-- Generated by IcoMoon.io -->
<svg version="1.1" xmlns="http://www.w3.org/2000/svg" width="32" height="32" viewBox="0 0 32 32">
<title>pos</title>
<path d="M23.543 0.571h-15.086c-2.743 0-5.029 2.286-5.029 5.029v20.914c0 2.743 2.286 5.029 5.029 5.029h15.2c2.743 0 5.029-2.286 5.029-5.029v-20.914c-0.114-2.743-2.4-5.029-5.143-5.029zM26.286 26.4c0 1.486-1.257 2.743-2.743 2.743h-15.086c-1.486 0-2.743-1.257-2.743-2.743v-20.8c0-1.486 1.257-2.743 2.743-2.743h15.2c1.486 0 2.743 1.257 2.743 2.743v20.8z"></path>
<path d="M8.457 14.4h14.743c0.686 0 1.143-0.457 1.143-1.143v-5.6c0-0.686-0.457-1.143-1.143-1.143h-14.743c-0.686 0-1.143 0.457-1.143 1.143v5.6c0 0.571 0.571 1.143 1.143 1.143zM9.6 8.8h12.457v3.314h-12.457v-3.314zM13.714 5.829h4.571c0.686 0 1.143-0.457 1.143-1.143s-0.457-1.143-1.143-1.143h-4.571c-0.686 0-1.143 0.457-1.143 1.143s0.571 1.143 1.143 1.143zM9.714 16.114h-1.257c-0.686 0-1.143 0.457-1.143 1.143s0.457 1.143 1.143 1.143h1.257c0.686 0 1.143-0.457 1.143-1.143s-0.457-1.143-1.143-1.143zM30.857 3.886c-0.686 0-1.143 0.457-1.143 1.143v14.514c0 0.686 0.457 1.143 1.143 1.143s1.143-0.457 1.143-1.143v-14.514c0-0.571-0.457-1.143-1.143-1.143zM16.571 16.114h-1.257c-0.686 0-1.143 0.457-1.143 1.143s0.457 1.143 1.143 1.143h1.257c0.686 0 1.143-0.457 1.143-1.143s-0.457-1.143-1.143-1.143zM23.429 16.114h-1.257c-0.686 0-1.143 0.457-1.143 1.143s0.457 1.143 1.143 1.143h1.257c0.686 0 1.143-0.457 1.143-1.143s-0.457-1.143-1.143-1.143zM9.714 20.114h-1.257c-0.686 0-1.143 0.457-1.143 1.143s0.457 1.143 1.143 1.143h1.257c0.686 0 1.143-0.457 1.143-1.143s-0.457-1.143-1.143-1.143zM16.571 20.114h-1.257c-0.686 0-1.143 0.457-1.143 1.143s0.457 1.143 1.143 1.143h1.257c0.686 0 1.143-0.457 1.143-1.143s-0.457-1.143-1.143-1.143zM23.429 20.114h-1.257c-0.686 0-1.143 0.457-1.143 1.143s0.457 1.143 1.143 1.143h1.257c0.686 0 1.143-0.457 1.143-1.143s-0.457-1.143-1.143-1.143zM9.714 24.229h-1.257c-0.686 0-1.143 0.457-1.143 1.143s0.457 1.143 1.143 1.143h1.257c0.686 0 1.143-0.457 1.143-1.143s-0.457-1.143-1.143-1.143zM16.571 24.229h-1.257c-0.686 0-1.143 0.457-1.143 1.143s0.457 1.143 1.143 1.143h1.257c0.686 0 1.143-0.457 1.143-1.143s-0.457-1.143-1.143-1.143zM23.429 24.229h-1.257c-0.686 0-1.143 0.457-1.143 1.143s0.457 1.143 1.143 1.143h1.257c0.686 0 1.143-0.457 1.143-1.143s-0.457-1.143-1.143-1.143z"></path>
</svg>
