<!-- Generated by IcoMoon.io -->
<svg version="1.1" xmlns="http://www.w3.org/2000/svg" width="32" height="32" viewBox="0 0 32 32">
<title>power</title>
<path d="M20.686 7.314c-0.571-0.229-1.257 0-1.486 0.571s0 1.257 0.571 1.486c3.657 1.6 6.057 5.143 6.057 9.143 0 5.371-4.457 9.829-9.829 9.829s-9.829-4.457-9.829-9.829c0-3.657 2.057-7.2 5.371-8.8 0.571-0.343 0.8-1.029 0.457-1.486-0.343-0.571-1.029-0.8-1.486-0.457-4 2.057-6.514 6.286-6.514 10.857-0.114 6.514 5.371 12 12 12s12.114-5.486 12.114-12.114c0-4.914-2.971-9.257-7.429-11.2z"></path>
<path d="M15.771 19.086c0.686 0 1.143-0.457 1.143-1.143v-15.429c0-0.686-0.457-1.143-1.143-1.143s-1.143 0.457-1.143 1.143v15.429c0 0.686 0.457 1.143 1.143 1.143z"></path>
</svg>
