<!-- Generated by IcoMoon.io -->
<svg version="1.1" xmlns="http://www.w3.org/2000/svg" width="32" height="32" viewBox="0 0 32 32">
<title>previous</title>
<path d="M23.2 7.771c0.457-0.457 1.143-0.457 1.6 0s0.457 1.143 0 1.6l-6.514 6.629 6.514 6.514c0.229 0.229 0.343 0.571 0.343 0.8s-0.114 0.571-0.343 0.8c-0.457 0.457-1.143 0.457-1.6 0l-6.514-6.514c-0.914-0.914-0.914-2.514 0-3.314l6.514-6.514z"></path>
<path d="M7.543 14.286l6.514-6.514c0.457-0.457 1.143-0.457 1.6 0s0.457 1.143 0 1.6l-6.514 6.629 6.514 6.514c0.229 0.229 0.343 0.571 0.343 0.8s-0.114 0.571-0.343 0.8c-0.457 0.457-1.143 0.457-1.6 0l-6.514-6.514c-0.914-0.8-0.914-2.4 0-3.314z"></path>
</svg>
