<!-- Generated by IcoMoon.io -->
<svg version="1.1" xmlns="http://www.w3.org/2000/svg" width="32" height="32" viewBox="0 0 32 32">
<title>printer</title>
<path d="M26.971 9.371h-2.4v-2.4c0-2.514-2.057-4.571-4.571-4.571h-9.143c-2.4 0-4.343 2.057-4.343 4.457v2.629h-1.486c-2.057 0-3.886 1.829-3.886 3.886v6.857c0 2.057 1.829 3.886 3.886 3.886h1.371v2.171c0 1.829 1.486 3.314 3.314 3.314h11.314c1.943 0 3.429-1.486 3.429-3.314v-2.171h2.4c2.057 0 3.886-1.829 3.886-3.886v-6.857c0-2.171-1.714-4-3.771-4zM8.8 6.857c0-1.029 1.029-2.057 2.057-2.057h9.143c1.143 0 2.286 1.143 2.286 2.286v2.4h-13.486v-2.629zM22.171 26.171c0 0.686-0.571 1.029-1.143 1.029h-11.2c-0.686 0-1.029-0.571-1.029-1.029v-6.171h13.486v6.171zM28.457 20.114c0 0.8-0.8 1.6-1.6 1.6h-2.4v-2.286c0-1.029-0.686-1.714-1.714-1.714h-14.514c-1.029 0-1.714 0.686-1.714 1.714v2.286h-1.486c-0.8 0-1.6-0.8-1.6-1.6v-6.857c0-0.8 0.8-1.6 1.6-1.6h21.829c0.8 0 1.6 0.8 1.6 1.6v6.857z"></path>
<path d="M25.257 13.257h-0.686c-0.686 0-1.143 0.457-1.143 1.143s0.457 1.143 1.143 1.143h0.686c0.686 0 1.143-0.457 1.143-1.143s-0.571-1.143-1.143-1.143z"></path>
</svg>
