<!-- Generated by IcoMoon.io -->
<svg version="1.1" xmlns="http://www.w3.org/2000/svg" width="32" height="32" viewBox="0 0 32 32">
<title>product-retrun</title>
<path d="M2.971 14.514c0.686 0 1.143 0.457 1.143 1.143v2.286c4.457-3.429 10.971-3.086 14.971 1.029 2.857 2.857 4 7.2 2.971 11.086-0.229 0.571-0.8 0.914-1.371 0.8-0.571-0.229-0.914-0.8-0.8-1.371 0.914-3.086 0-6.514-2.4-8.8-3.314-3.314-8.343-3.543-12-0.8h2.743c0.686 0 1.143 0.457 1.143 1.143s-0.457 1.143-1.143 1.143h-5.371c-0.343 0-0.571-0.114-0.8-0.343s-0.343-0.457-0.343-0.8v-5.143c0.114-0.8 0.571-1.371 1.257-1.371z"></path>
<path d="M25.943 1.143h-19.886c-2.286 0-4.229 1.943-4.229 4.229v6.743c0 0.686 0.457 1.143 1.143 1.143s1.143-0.457 1.143-1.143v-6.743c0-1.029 0.8-1.943 1.943-1.943h4.457v6.857c0 0.8 0.457 1.486 1.143 1.829 0.457 0.229 0.914 0.343 1.486 0.343s1.029-0.114 1.486-0.457l1.714-1.029c0.229-0.114 0.571-0.114 0.8 0l1.029 0.914c0.8 0.571 2.057 0.686 3.086 0.229 0.8-0.457 1.257-1.143 1.257-1.943v-6.743h3.543c1.029 0 1.943 0.914 1.943 1.943v21.257c0 1.029-0.914 1.943-1.943 1.943h-5.029v2.286h5.029c2.286 0 4.229-1.943 4.229-4.229v-21.257c0-2.286-1.943-4.229-4.343-4.229zM20.229 10.057c-0.114 0.114-0.457 0.114-0.571 0.114l-1.029-0.914s-0.114-0.114-0.229-0.114c-0.914-0.571-2.286-0.571-3.2 0l-1.714 1.029c-0.229 0.114-0.457 0.114-0.686 0v-6.743h7.429v6.629zM7.886 24.114c-0.686 0-1.143 0.457-1.143 1.143v2.286c0 0.686 0.457 1.143 1.143 1.143s1.143-0.457 1.143-1.143v-2.286c0-0.571-0.457-1.143-1.143-1.143zM11.314 24.114c-0.686 0-1.143 0.457-1.143 1.143v2.286c0 0.686 0.457 1.143 1.143 1.143s1.143-0.457 1.143-1.143v-2.286c0-0.571-0.457-1.143-1.143-1.143z"></path>
<path d="M14.743 24.114c-0.686 0-1.143 0.457-1.143 1.143v2.286c0 0.686 0.457 1.143 1.143 1.143s1.143-0.457 1.143-1.143v-2.286c0-0.571-0.457-1.143-1.143-1.143z"></path>
</svg>
