<!-- Generated by IcoMoon.io -->
<svg version="1.1" xmlns="http://www.w3.org/2000/svg" width="32" height="32" viewBox="0 0 32 32">
<title>produt-group</title>
<path d="M26.4 2.171h-14.286c-2.286 0-4.229 1.943-4.229 4.229v14.4c0 2.286 1.943 4.229 4.229 4.229h14.286c2.286 0 4.229-1.943 4.229-4.229v-14.4c0-2.286-1.943-4.229-4.229-4.229zM15.429 4.457h7.429v6.629c-0.114 0.114-0.457 0.114-0.571 0.114l-1.029-0.914s-0.114-0.114-0.229-0.114c-0.914-0.571-2.286-0.571-3.2 0l-1.714 1.029c-0.229 0.114-0.457 0.114-0.686 0v-6.743zM28.343 20.8c0 1.143-0.8 1.943-1.943 1.943h-14.286c-1.143 0-1.943-0.8-1.943-1.943v-14.4c0-1.143 0.8-1.943 1.943-1.943h1.029v6.857c0 0.8 0.457 1.486 1.143 1.829 0.457 0.229 0.914 0.343 1.486 0.343s1.029-0.114 1.486-0.457l1.714-1.029c0.229-0.114 0.571-0.114 0.8 0l1.029 0.914c0.8 0.571 2.057 0.686 3.086 0.229 0.8-0.457 1.257-1.143 1.257-1.943v-6.743h1.257c1.143 0 1.943 0.8 1.943 1.943v14.4z"></path>
<path d="M14.286 16.229c-0.686 0-1.143 0.457-1.143 1.143v2.286c0 0.686 0.457 1.143 1.143 1.143s1.143-0.457 1.143-1.143v-2.286c0-0.571-0.457-1.143-1.143-1.143zM17.714 16.229c-0.686 0-1.143 0.457-1.143 1.143v2.286c0 0.686 0.457 1.143 1.143 1.143s1.143-0.457 1.143-1.143v-2.286c0-0.571-0.457-1.143-1.143-1.143zM21.143 16.229c-0.686 0-1.143 0.457-1.143 1.143v2.286c0 0.686 0.457 1.143 1.143 1.143s1.143-0.457 1.143-1.143v-2.286c0-0.571-0.457-1.143-1.143-1.143z"></path>
<path d="M22.286 26.514c0 1.029-0.914 1.943-1.943 1.943h-14.286c-1.029 0-1.943-0.914-1.943-1.943v-14.4c0-1.029 0.914-1.943 1.943-1.943 0.229 0 0.457-0.229 0.457-0.457v-1.371c0-0.229-0.229-0.457-0.457-0.457-2.286 0-4.229 1.943-4.229 4.229v14.4c0 2.286 1.943 4.229 4.229 4.229h14.286c2.286 0 4.229-1.943 4.229-4.229 0-0.343-0.229-0.571-0.571-0.571h-1.257c-0.229 0-0.457 0.229-0.457 0.571z"></path>
</svg>
