<!-- Generated by IcoMoon.io -->
<svg version="1.1" xmlns="http://www.w3.org/2000/svg" width="32" height="32" viewBox="0 0 32 32">
<title>product-add</title>
<path d="M26.057 1.143h-20c-2.286 0-4.229 1.943-4.229 4.229v21.257c0 2.286 1.943 4.229 4.229 4.229h20c2.286 0 4.229-1.943 4.229-4.229v-21.257c-0.114-2.286-1.943-4.229-4.229-4.229zM12.8 3.429h7.429v6.629c-0.114 0.114-0.457 0.114-0.571 0.114l-1.029-0.914s-0.114-0.114-0.229-0.114c-0.914-0.571-2.286-0.571-3.2 0l-1.714 1.029c-0.229 0.114-0.457 0.114-0.686 0v-6.743zM27.886 26.629c0 1.143-0.8 1.943-1.943 1.943h-19.886c-1.143 0-1.943-0.8-1.943-1.943v-21.257c0-1.143 0.8-1.943 1.943-1.943h4.457v6.857c0 0.8 0.457 1.486 1.143 1.829 0.457 0.229 0.914 0.343 1.486 0.343s1.029-0.114 1.486-0.457l1.714-1.029c0.229-0.114 0.571-0.114 0.8 0l1.029 0.914c0.8 0.571 2.057 0.686 3.086 0.229 0.8-0.457 1.257-1.143 1.257-1.943v-6.743h3.543c1.143 0 1.943 0.8 1.943 1.943v21.257z"></path>
<path d="M8.229 22.057c-0.686 0-1.143 0.457-1.143 1.143v2.286c0 0.686 0.457 1.143 1.143 1.143s1.143-0.457 1.143-1.143v-2.286c0-0.686-0.571-1.143-1.143-1.143zM11.657 22.057c-0.686 0-1.143 0.457-1.143 1.143v2.286c0 0.686 0.457 1.143 1.143 1.143s1.143-0.457 1.143-1.143v-2.286c0-0.686-0.571-1.143-1.143-1.143zM15.086 22.057c-0.686 0-1.143 0.457-1.143 1.143v2.286c0 0.686 0.457 1.143 1.143 1.143s1.143-0.457 1.143-1.143v-2.286c0-0.686-0.571-1.143-1.143-1.143zM25.943 19.886h-2.857v-2.743c0-0.686-0.457-1.143-1.143-1.143s-1.143 0.457-1.143 1.143v2.743h-2.857c-0.686 0-1.143 0.457-1.143 1.143s0.457 1.143 1.143 1.143h2.857v2.743c0 0.686 0.457 1.143 1.143 1.143s1.143-0.457 1.143-1.143v-2.743h2.857c0.686 0 1.143-0.457 1.143-1.143 0-0.571-0.457-1.143-1.143-1.143z"></path>
</svg>
