<!-- Generated by IcoMoon.io -->
<svg version="1.1" xmlns="http://www.w3.org/2000/svg" width="32" height="32" viewBox="0 0 32 32">
<title>push</title>
<path d="M15.2 28.571c-6.971 0-12.571-5.6-12.571-12.571s5.6-12.571 12.571-12.571 12.571 5.6 12.571 12.571c0 3.314-1.371 6.514-3.657 8.914s-5.486 3.657-8.914 3.657zM15.2 5.714c-5.714 0-10.286 4.571-10.286 10.286s4.571 10.286 10.286 10.286 10.286-4.571 10.286-10.286-4.571-10.286-10.286-10.286z"></path>
<path d="M12.914 10.286c0.686 0 1.143 0.457 1.143 1.143v9.143c0 0.686-0.457 1.143-1.143 1.143s-1.143-0.457-1.143-1.143v-9.143c0-0.686 0.571-1.143 1.143-1.143z"></path>
<path d="M17.486 10.286c0.686 0 1.143 0.457 1.143 1.143v9.143c0 0.686-0.457 1.143-1.143 1.143s-1.143-0.457-1.143-1.143v-9.143c0-0.686 0.571-1.143 1.143-1.143z"></path>
</svg>
