<!-- Generated by IcoMoon.io -->
<svg version="1.1" xmlns="http://www.w3.org/2000/svg" width="32" height="32" viewBox="0 0 32 32">
<title>quotation</title>
<path d="M20.457 1.714h-10.057c-2.286 0-4.229 1.943-4.229 4.229v20.571c0 2.286 1.943 4.229 4.229 4.229h13.143c2.286 0 4.229-1.943 4.229-4.229v-17.486c0-3.543-2.743-7.314-7.314-7.314zM25.371 8h-3.771c-0.229 0-0.457-0.229-0.457-0.457v-3.429c2.4 0.229 3.771 2.171 4.229 3.886zM25.486 26.514c0 1.143-0.8 1.943-1.943 1.943h-13.143c-1.143 0-1.943-0.8-1.943-1.943v-20.571c0-1.143 0.8-1.943 1.943-1.943h8.457v3.543c0 1.6 1.257 2.743 2.743 2.743h3.886v16.229z"></path>
<path d="M17.943 15.886c-2.171-0.571-3.086-1.029-3.086-2.171 0-1.371 1.486-1.714 2.629-1.714 1.486 0 1.829 0.8 1.943 0.914 0.229 0.571 0.914 0.914 1.486 0.686s0.914-0.914 0.686-1.486c-0.229-0.8-1.143-1.943-2.971-2.286v-1.6c0-0.686-0.457-1.143-1.143-1.143s-1.143 0.457-1.143 1.143v1.6c-2.4 0.457-3.771 1.829-3.771 3.886 0 2.971 2.743 3.771 4.8 4.343 2.286 0.686 3.314 1.143 3.314 2.514 0 0.914-1.486 2.057-3.314 2.057-1.143 0-3.771-0.229-3.771-2.514 0-0.686-0.457-1.143-1.143-1.143s-1.143 0.457-1.143 1.143c0 2.629 1.943 4.343 4.914 4.686v1.257c0 0.686 0.457 1.143 1.143 1.143s1.143-0.457 1.143-1.143v-1.257c2.514-0.457 4.457-2.171 4.457-4.229 0-3.2-2.857-4-5.029-4.686z"></path>
</svg>
