<!-- Generated by IcoMoon.io -->
<svg version="1.1" xmlns="http://www.w3.org/2000/svg" width="32" height="32" viewBox="0 0 32 32">
<title>refresh</title>
<path d="M6.857 17.486l3.771-3.771c0.457-0.457 0.457-1.143 0-1.6s-1.143-0.457-1.6 0l-1.943 1.943c0.914-4.114 4.571-7.2 8.914-7.2 2.857 0 5.486 1.257 7.086 3.429 0.343 0.457 1.143 0.571 1.6 0.229s0.571-1.143 0.229-1.6c-2.057-2.743-5.371-4.343-8.914-4.343-5.6 0-10.171 4-11.2 9.257l-1.6-1.6c-0.457-0.457-1.143-0.457-1.6 0s-0.457 1.143 0 1.6l3.657 3.657c0.229 0.229 0.571 0.343 0.8 0.343s0.571-0.114 0.8-0.343zM30.4 17.486l-3.657-3.657c-0.457-0.457-1.143-0.457-1.6 0l-3.771 3.771c-0.457 0.457-0.457 1.143 0 1.6 0.229 0.229 0.571 0.343 0.8 0.343s0.571-0.114 0.8-0.343l1.943-1.943c-0.571 4.457-4.457 7.886-9.029 7.886-3.314 0-6.4-1.829-7.886-4.571-0.343-0.571-1.029-0.8-1.6-0.457s-0.686 1.029-0.457 1.6c1.943 3.429 5.829 5.714 9.943 5.714 5.829 0 10.629-4.343 11.314-9.943l1.6 1.6c0.457 0.457 1.143 0.457 1.6 0s0.457-1.143 0-1.6z"></path>
</svg>
