<!-- Generated by IcoMoon.io -->
<svg version="1.1" xmlns="http://www.w3.org/2000/svg" width="32" height="32" viewBox="0 0 32 32">
<title>refrigrator</title>
<path d="M21.829 0.686h-11.657c-1.829 0-3.314 1.371-3.314 3.314v24.114c0 1.829 1.486 3.314 3.314 3.314h11.543c1.829 0 3.314-1.486 3.314-3.314v-24.114c0.114-1.943-1.371-3.314-3.2-3.314zM10.171 2.857h11.543c0.571 0 1.029 0.457 1.029 1.029v5.829h-13.714v-5.714c0.114-0.571 0.571-1.143 1.143-1.143zM21.829 29.257h-11.657c-0.571 0-1.029-0.457-1.029-1.029v-16.114h13.714v16.114c0 0.571-0.457 1.029-1.029 1.029z"></path>
<path d="M20 13.257c-0.686 0-1.143 0.457-1.143 1.143v4.571c0 0.686 0.457 1.143 1.143 1.143s1.143-0.457 1.143-1.143v-4.571c0-0.8-0.571-1.143-1.143-1.143z"></path>
</svg>
