<!-- Generated by IcoMoon.io -->
<svg version="1.1" xmlns="http://www.w3.org/2000/svg" width="32" height="32" viewBox="0 0 32 32">
<title>return-credit</title>
<path d="M27.429 27.429h-22.857c-2.057 0-3.771-1.714-3.771-3.771v-15.314c0-2.057 1.714-3.771 3.771-3.771h22.857c2.057 0 3.771 1.714 3.771 3.771v15.2c0 2.171-1.714 3.886-3.771 3.886zM4.571 7.086c-0.686 0-1.257 0.571-1.257 1.257v15.2c0 0.686 0.571 1.257 1.257 1.257h22.857c0.686 0 1.257-0.571 1.257-1.257v-15.2c0-0.686-0.571-1.257-1.257-1.257h-22.857z"></path>
<path d="M12.229 13.371l1.029-0.914c1.486-1.6 4-1.943 5.829-0.8 1.943 1.143 2.857 3.429 2.4 5.6s-2.286 3.771-4.457 4h-0.114c-0.686 0-1.257-0.571-1.257-1.257s0.571-1.257 1.257-1.257c1.029-0.114 1.943-0.914 2.171-1.943 0.229-1.143-0.229-2.286-1.143-2.857s-2.057-0.343-2.743 0.457l-0.571 0.571h0.343c0.686 0 1.257 0.571 1.257 1.257s-0.571 1.257-1.257 1.257h-4c-0.686 0-1.257-0.571-1.257-1.257v-3.771c0-0.686 0.571-1.257 1.257-1.257s1.257 0.571 1.257 1.257v0.914z"></path>
</svg>
