<!-- Generated by IcoMoon.io -->
<svg version="1.1" xmlns="http://www.w3.org/2000/svg" width="32" height="32" viewBox="0 0 32 32">
<title>return</title>
<path d="M16.571 2.286c-7.543 0-13.714 6.171-13.714 13.714 0 3.429 1.257 6.629 3.543 9.143h-3.543c-0.686 0-1.143 0.457-1.143 1.143s0.457 1.143 1.143 1.143h6.857c0.686 0 1.143-0.457 1.143-1.143v-6.857c0-0.686-0.457-1.143-1.143-1.143s-1.143 0.457-1.143 1.143v4.686c-2.171-2.171-3.429-5.029-3.429-8.114 0-6.286 5.143-11.429 11.429-11.429s11.429 5.143 11.429 11.429-5.143 11.429-11.429 11.429c-0.686 0-1.143 0.457-1.143 1.143s0.457 1.143 1.143 1.143c7.543 0 13.714-6.171 13.714-13.714s-6.171-13.714-13.714-13.714z"></path>
</svg>
