<!-- Generated by IcoMoon.io -->
<svg version="1.1" xmlns="http://www.w3.org/2000/svg" width="32" height="32" viewBox="0 0 32 32">
<title>security</title>
<path d="M29.143 8.343c-0.114-0.8-0.343-1.6-0.686-2.171-1.714-3.2-6.629-5.371-12.457-5.371-5.371 0-10.286 2.057-12.114 5.029-0.686 0.914-1.029 1.829-1.029 2.743v9.143c0 7.771 10.4 13.486 13.143 13.486 3.771 0 13.143-5.829 13.143-13.486v-9.371zM26.857 17.714c0 6.171-8.229 11.2-10.857 11.2-1.6 0-10.857-5.029-10.857-11.2v-9.143c0-0.457 0.229-0.914 0.571-1.371l0.114-0.114c1.371-2.4 5.6-4 10.171-4 4.8 0 9.143 1.714 10.4 4.229 0.114 0.229 0.343 0.8 0.457 1.371v9.029z"></path>
<path d="M23.086 10.4l-9.6 8.457-3.429-3.657c-0.457-0.457-1.143-0.457-1.6 0s-0.457 1.143 0 1.6l4.229 4.457c0.229 0.229 0.571 0.343 0.8 0.343s0.571-0.114 0.8-0.229l10.4-9.143c0.457-0.457 0.571-1.143 0.114-1.6-0.457-0.571-1.143-0.571-1.714-0.229z"></path>
</svg>
