<!-- Generated by IcoMoon.io -->
<svg version="1.1" xmlns="http://www.w3.org/2000/svg" width="32" height="32" viewBox="0 0 32 32">
<title>setting-reset</title>
<path d="M16 2.743c-7.543 0-13.714 6.171-13.714 13.714 0 3.886 1.6 7.429 4.457 10.057h-1.371c-0.686 0-1.143 0.457-1.143 1.143s0.457 1.143 1.143 1.143h4.343c0.686 0 1.143-0.457 1.143-1.143v-4.343c0-0.686-0.457-1.143-1.143-1.143s-1.143 0.457-1.143 1.143v1.829c-2.514-2.171-4-5.257-4-8.686 0-6.286 5.143-11.429 11.429-11.429s11.429 5.143 11.429 11.429-5.143 11.429-11.429 11.429c-0.686 0-1.143 0.457-1.143 1.143s0.457 1.143 1.143 1.143c7.543 0 13.714-6.171 13.714-13.714s-6.171-13.714-13.714-13.714z"></path>
<path d="M16 14.286c-0.914 0-1.714 0.8-1.714 1.714s0.8 1.714 1.714 1.714 1.714-0.8 1.714-1.714-0.8-1.714-1.714-1.714z"></path>
<path d="M19.429 22.4v-0.114l0.114 0.114c0.457 0.343 1.029 0.457 1.6 0.343s1.029-0.457 1.257-0.914l1.486-2.171c0.343-0.457 0.457-1.029 0.343-1.6s-0.457-1.029-0.914-1.257l-0.457-0.343v-0.571c0.114-0.114 0.229-0.114 0.343-0.229 0.457-0.229 0.8-0.686 0.914-1.257s0.114-1.143-0.229-1.6l-1.257-2.286c-0.229-0.457-0.686-0.8-1.257-0.914s-1.143-0.114-1.6 0.229l-0.343 0.229s-0.114 0-0.114-0.114v-0.343c0-1.143-0.914-2.057-2.057-2.057h-2.629c-1.143 0-2.057 0.914-2.057 2.057v0.114l-0.114-0.114c-0.914-0.571-2.171-0.343-2.857 0.686l-1.486 2.171c-0.571 0.914-0.343 2.286 0.571 2.857l0.457 0.229v0.571c-0.114 0-0.229 0.114-0.229 0.114l-0.229 0.114c-0.457 0.229-0.8 0.686-0.914 1.257s-0.114 1.143 0.229 1.6l1.257 2.286c0.229 0.457 0.686 0.8 1.257 0.914s1.143 0.114 1.6-0.229l0.343-0.229s0.114 0 0.114 0.114v0.457c0 1.143 0.914 2.057 2.057 2.057h2.629c1.143-0.114 2.171-1.029 2.171-2.171zM17.143 22.171h-2.286v-0.343c0-0.8-0.457-1.486-1.029-1.829-0.114 0-0.229-0.114-0.229-0.114-0.686-0.457-1.486-0.457-2.057 0l-0.229 0.114-1.029-1.829c0.914-0.457 1.143-0.8 1.257-0.914s0.229-0.571 0.114-2.057c-0.114-0.571-0.457-1.143-0.914-1.371l-0.457-0.343 1.143-1.829 0.229 0.229c0.686 0.457 1.486 0.457 2.171 0.114s1.143-1.029 1.143-1.829v-0.343h2.171v0.343c0 0.8 0.457 1.486 1.029 1.829 0.114 0 0.229 0.114 0.229 0.114 0.686 0.457 1.486 0.457 2.057 0l0.229-0.114 1.029 1.829c-0.914 0.457-1.143 0.914-1.143 1.029v1.486c-0.114 0.8 0.229 1.486 0.914 1.943l0.229 0.229-1.143 1.829-0.229-0.229c-0.686-0.457-1.486-0.457-2.171-0.114s-1.143 1.029-1.143 1.829v0.343z"></path>
</svg>
