<!-- Generated by IcoMoon.io -->
<svg version="1.1" xmlns="http://www.w3.org/2000/svg" width="32" height="32" viewBox="0 0 32 32">
<title>setting-cog</title>
<path d="M16 10.514c-3.086 0-5.486 2.514-5.486 5.486 0 3.086 2.514 5.486 5.486 5.486 3.086 0 5.486-2.514 5.486-5.486 0-3.086-2.4-5.486-5.486-5.486zM16 19.2c-1.829 0-3.2-1.486-3.2-3.2 0-1.829 1.486-3.2 3.2-3.2 1.829 0 3.2 1.486 3.2 3.2 0 1.829-1.371 3.2-3.2 3.2z"></path>
<path d="M27.314 17.714l-0.686-0.457c-0.114-0.114-0.229-0.229-0.114-0.343v-1.486c0.229-0.114 0.571-0.343 1.029-0.571 1.257-0.686 1.714-2.4 1.029-3.657l-2.286-3.543c-0.343-0.571-0.914-1.029-1.6-1.257s-1.371-0.114-2.057 0.229l-0.8 0.457c-0.114 0.114-0.229 0.114-0.343 0-0.229-0.114-0.457-0.229-0.571-0.343-0.114 0-0.114-0.114-0.114-0.343v-0.8c0-1.486-1.143-2.629-2.629-2.629h-4.229c-1.486 0-2.629 1.143-2.629 2.629v0.914c0 0.114-0.114 0.229-0.229 0.343-0.229 0-0.343 0-0.457-0.114l-0.686-0.457c-0.686-0.457-1.371-0.571-2.057-0.343-0.686 0.114-1.257 0.571-1.714 1.143l-2.286 3.543c-0.343 0.571-0.571 1.257-0.343 1.943 0.114 0.686 0.571 1.257 1.143 1.714l0.686 0.457c0.114 0 0.114 0.114 0.114 0.229 0 0.343 0.114 1.143 0.114 1.6-0.229 0.114-0.571 0.343-0.914 0.457h-0.114c-1.257 0.686-1.714 2.4-1.029 3.657l2.171 3.657c0.686 1.257 2.4 1.714 3.657 1.029l0.8-0.457c0.114-0.114 0.229-0.114 0.343 0 0.229 0.114 0.457 0.229 0.571 0.343 0.114 0 0.114 0.114 0.114 0.343v0.914c0 1.486 1.143 2.629 2.629 2.629h4.229c1.486 0 2.629-1.143 2.629-2.629v-0.914c0-0.114 0.114-0.229 0.229-0.343s0.229-0.114 0.343 0l0.686 0.457c1.257 0.8 2.857 0.457 3.657-0.8l2.286-3.543c0.343-0.571 0.571-1.257 0.343-1.943 0.114-0.686-0.343-1.257-0.914-1.714zM24.114 16.343v0.343c-0.114 1.029 0.343 1.943 1.143 2.514l0.686 0.457c0.114 0.114 0.114 0.114 0.114 0.229v0.229l-2.286 3.543c-0.114 0.229-0.343 0.229-0.457 0.114l-0.686-0.457c-0.8-0.571-1.829-0.571-2.629-0.114h-0.114c-0.914 0.457-1.371 1.371-1.371 2.286v0.914c0 0.229-0.114 0.343-0.343 0.343h-4.229c-0.229 0-0.343-0.114-0.343-0.343v-0.914c0-1.029-0.571-1.829-1.371-2.286-0.114-0.114-0.343-0.229-0.457-0.229-0.457-0.229-0.914-0.343-1.371-0.343s-0.914 0.114-1.371 0.343l-0.8 0.457c-0.229 0.114-0.457 0-0.457-0.114l-2.171-3.657c-0.114-0.114 0-0.343 0.114-0.457 1.714-0.686 1.943-1.257 2.057-1.486 0.343-0.8 0.114-2.857 0-2.971-0.114-0.8-0.571-1.371-1.143-1.829l-0.686-0.457c-0.114-0.229-0.229-0.229-0.229-0.343v-0.229l2.286-3.543c0.114-0.114 0.229-0.114 0.229-0.114h0.229l0.686 0.457c0.8 0.571 1.829 0.571 2.743 0.114s1.371-1.371 1.371-2.286v-0.914c0-0.229 0.114-0.343 0.343-0.343h4.229c0.229 0 0.343 0.114 0.343 0.343v0.914c0 1.029 0.571 1.829 1.371 2.286 0.114 0.114 0.343 0.229 0.457 0.229 0.8 0.457 1.829 0.571 2.743 0l0.8-0.457c0.229-0.114 0.457 0 0.457 0.114l2.171 3.657c0.114 0.114 0 0.229 0 0.229s0 0.114-0.114 0.229c-1.143 0.571-1.829 1.029-2.057 1.6 0.114 0.571 0.114 1.143 0.114 1.943z"></path>
</svg>
