<!-- Generated by IcoMoon.io -->
<svg version="1.1" xmlns="http://www.w3.org/2000/svg" width="32" height="32" viewBox="0 0 32 32">
<title>share-2</title>
<path d="M8 7.886c0.686 0 1.143 0.457 1.143 1.143v2.286c4.457-3.429 10.971-3.086 14.971 1.029 2.857 2.857 4 7.2 2.971 11.086-0.229 0.571-0.8 0.914-1.371 0.8-0.571-0.229-0.914-0.8-0.8-1.371 0.914-3.086 0-6.514-2.4-8.8-3.2-3.429-8.343-3.771-11.886-1.029h2.743c0.686 0 1.143 0.457 1.143 1.143s-0.457 1.143-1.143 1.143h-5.371c-0.343 0-0.571-0.114-0.8-0.343s-0.343-0.457-0.343-0.8v-5.143c0-0.686 0.571-1.143 1.143-1.143z"></path>
</svg>
