<!-- Generated by IcoMoon.io -->
<svg version="1.1" xmlns="http://www.w3.org/2000/svg" width="32" height="32" viewBox="0 0 32 32">
<title>shoes</title>
<path d="M22.286 11.543h-7.2c-0.229 0-0.457-0.114-0.571-0.343l-1.371-2.4c-0.571-0.914-1.486-1.371-2.514-1.371h-6.4c-1.714 0-3.2 1.486-3.2 3.314v10.514c0 1.829 1.486 3.314 3.2 3.314h23.429c1.714 0 3.2-1.486 3.2-3.314v-0.686c0.114-5.029-3.771-9.029-8.571-9.029zM28.686 21.257c0 0.571-0.457 1.029-0.914 1.029h-23.429c-0.457 0-0.914-0.457-0.914-1.029v-10.514c0-0.571 0.457-1.029 0.914-1.029h6.4c0.229 0 0.457 0.114 0.571 0.343l1.371 2.4c0.229 0.457 0.686 0.8 1.143 1.029v1.943c0 0.686 0.457 1.143 1.143 1.143s1.143-0.457 1.143-1.143v-1.6h1.143v1.6c0 0.686 0.457 1.143 1.143 1.143s1.143-0.457 1.143-1.143v-1.6h1.143v1.6c0 0.686 0.457 1.143 1.143 1.143s1.143-0.457 1.143-1.143v-1.6c3.2 0.343 5.714 3.2 5.714 6.743v0.686z"></path>
</svg>
