<!-- Generated by IcoMoon.io -->
<svg version="1.1" xmlns="http://www.w3.org/2000/svg" width="32" height="32" viewBox="0 0 32 32">
<title>shop</title>
<path d="M29.486 7.543v-2.4c0-0.686-0.457-1.143-1.143-1.143h-24.686c-0.686 0-1.143 0.457-1.143 1.143v2.4c-0.686 0-1.143 0.457-1.143 1.143v1.371c0 1.143 0.457 2.171 1.143 2.971v13.829c0 0.686 0.457 1.143 1.143 1.143h14.4c0.686 0 1.143-0.457 1.143-1.143v-8.571h4.343v8.571c0 0.686 0.457 1.143 1.143 1.143h3.543c0.686 0 1.143-0.457 1.143-1.143v-13.829c0.686-0.8 1.143-1.829 1.143-2.971v-1.371c0.114-0.686-0.457-1.143-1.029-1.143zM4.8 6.286h22.4v1.257h-22.4v-1.257zM21.486 9.829v0.229c0 1.143-0.914 2.171-2.171 2.171s-2.171-0.914-2.171-2.171v-0.229h4.343zM14.629 9.829v0.229c0 1.143-0.914 2.171-2.171 2.171s-2.286-0.914-2.286-2.171v-0.229h4.457zM3.657 10.057v-0.229h4.343v0.229c0 1.143-0.914 2.171-2.171 2.171s-2.171-0.914-2.171-2.171zM27.314 25.714h-1.486v-8.571c0-0.686-0.457-1.143-1.143-1.143h-6.629c-0.686 0-1.143 0.457-1.143 1.143v8.571h-12.114v-11.314c0.343 0.114 0.686 0.114 1.029 0.114 1.257 0 2.514-0.571 3.314-1.486 0.8 0.914 1.943 1.486 3.314 1.486s2.629-0.686 3.429-1.6c0.8 1.029 2.057 1.6 3.429 1.6s2.629-0.686 3.429-1.6c0.8 1.029 2.057 1.6 3.429 1.6 0.343 0 0.686 0 1.029-0.114v11.314zM28.343 10.057c0 1.143-0.914 2.171-2.171 2.171s-2.171-0.914-2.171-2.171v-0.229h4.343v0.229z"></path>
<path d="M13.486 16.114h-5.829c-0.686 0-1.143 0.457-1.143 1.143v4.914c0 0.686 0.457 1.143 1.143 1.143h5.829c0.686 0 1.143-0.457 1.143-1.143v-4.914c0-0.686-0.571-1.143-1.143-1.143zM12.343 21.029h-3.543v-2.629h3.543v2.629z"></path>
</svg>
