<!-- Generated by IcoMoon.io -->
<svg version="1.1" xmlns="http://www.w3.org/2000/svg" width="32" height="32" viewBox="0 0 32 32">
<title>sign-out</title>
<path d="M19.886 23.314c-0.686 0-1.143 0.457-1.143 1.143v3.429c0 0.457-0.457 0.914-0.914 0.914h-13.371c-0.457 0-0.914-0.457-0.914-0.914v-23.657c0-0.457 0.457-0.914 0.914-0.914h13.371c0.457 0 0.914 0.457 0.914 0.914v3.314c0 0.686 0.457 1.143 1.143 1.143s1.143-0.457 1.143-1.143v-3.314c0-1.714-1.486-3.2-3.2-3.2h-13.371c-1.714 0-3.2 1.486-3.2 3.2v23.657c0 1.714 1.486 3.2 3.2 3.2h13.371c1.714 0 3.2-1.486 3.2-3.2v-3.429c0-0.686-0.571-1.143-1.143-1.143z"></path>
<path d="M30.171 14.057l-5.371-5.371c-0.457-0.457-1.143-0.457-1.6 0s-0.457 1.143 0 1.6l4.343 4.343h-15.429c-0.686 0-1.143 0.457-1.143 1.143s0.457 1.143 1.143 1.143h14.971l-3.886 3.886c-0.457 0.457-0.457 1.143 0 1.6 0.229 0.229 0.571 0.343 0.8 0.343s0.571-0.114 0.8-0.343l5.371-5.371c0.343-0.343 0.571-0.914 0.571-1.486s-0.229-1.029-0.571-1.486z"></path>
</svg>
