<!-- Generated by IcoMoon.io -->
<svg version="1.1" xmlns="http://www.w3.org/2000/svg" width="32" height="32" viewBox="0 0 32 32">
<title>sort-1</title>
<path d="M10.286 3.886c-0.686 0-1.143 0.457-1.143 1.143v19.543l-2.971-2.4c-0.457-0.343-1.143-0.343-1.6 0.229-0.343 0.457-0.343 1.143 0.229 1.6l4.8 3.886c0.229 0.114 0.457 0.229 0.686 0.229 0.114 0 0.343 0 0.457-0.114 0.457-0.229 0.686-0.571 0.686-1.029v-21.943c0-0.686-0.457-1.143-1.143-1.143zM26.514 20.343h-11.886c-0.686 0-1.143 0.457-1.143 1.143s0.457 1.143 1.143 1.143h11.886c0.686 0 1.143-0.457 1.143-1.143s-0.457-1.143-1.143-1.143zM14.629 16.686h9.029c0.686 0 1.143-0.457 1.143-1.143s-0.457-1.143-1.143-1.143h-9.029c-0.686 0-1.143 0.457-1.143 1.143s0.457 1.143 1.143 1.143zM14.629 10.743h4.343c0.686 0 1.143-0.457 1.143-1.143s-0.457-1.143-1.143-1.143h-4.343c-0.686 0-1.143 0.457-1.143 1.143s0.457 1.143 1.143 1.143z"></path>
</svg>
