<!-- Generated by IcoMoon.io -->
<svg version="1.1" xmlns="http://www.w3.org/2000/svg" width="32" height="32" viewBox="0 0 32 32">
<title>square</title>
<path d="M24.914 29.029h-17.829c-2.286 0-4.229-1.829-4.229-4.229v-17.714c0-2.286 1.829-4.229 4.229-4.229h17.829c2.286 0 4.229 1.829 4.229 4.229v17.829c-0.114 2.286-1.943 4.114-4.229 4.114zM7.086 5.257c-1.029 0-1.943 0.8-1.943 1.943v17.829c0 1.029 0.8 1.943 1.943 1.943h17.829c1.029 0 1.943-0.8 1.943-1.943v-17.943c0-1.029-0.8-1.943-1.943-1.943h-17.829z"></path>
</svg>
