<!-- Generated by IcoMoon.io -->
<svg version="1.1" xmlns="http://www.w3.org/2000/svg" width="32" height="32" viewBox="0 0 32 32">
<title>square-1</title>
<path d="M26.286 1.486h-20.571c-2.286 0-4.229 1.943-4.229 4.229v20.571c0 2.286 1.829 4.229 4.229 4.229h20.571c2.286 0 4.229-1.829 4.229-4.229v-20.571c0-2.286-1.943-4.229-4.229-4.229zM28.229 26.286c0 1.029-0.8 1.943-1.943 1.943h-20.571c-1.029 0-1.943-0.8-1.943-1.943v-20.571c0-1.029 0.8-1.943 1.943-1.943h20.571c1.029 0 1.943 0.8 1.943 1.943v20.571z"></path>
<path d="M20.686 8.457h-9.371c-1.486 0-2.743 1.257-2.743 2.743v9.486c0 1.486 1.257 2.743 2.743 2.743h9.486c1.486 0 2.743-1.257 2.743-2.743v-9.371c0-1.6-1.257-2.857-2.857-2.857zM21.257 20.686c0 0.229-0.229 0.457-0.457 0.457h-9.486c-0.229 0-0.457-0.229-0.457-0.457v-9.371c0-0.229 0.229-0.457 0.457-0.457h9.486c0.229 0 0.457 0.229 0.457 0.457v9.371z"></path>
</svg>
