<!-- Generated by IcoMoon.io -->
<svg version="1.1" xmlns="http://www.w3.org/2000/svg" width="32" height="32" viewBox="0 0 32 32">
<title>square-3</title>
<path d="M20.229 23.086h-8.457c-1.486 0-2.743-1.257-2.743-2.743v-8.457c0-1.486 1.257-2.743 2.743-2.743h8.457c1.486 0 2.743 1.257 2.743 2.743v8.457c0.114 1.486-1.143 2.743-2.743 2.743zM11.771 11.2c-0.229 0-0.457 0.229-0.457 0.457v8.457c0 0.229 0.229 0.457 0.457 0.457h8.457c0.229 0 0.457-0.229 0.457-0.457v-8.457c0-0.229-0.229-0.457-0.457-0.457h-8.457z"></path>
</svg>
