<!-- Generated by IcoMoon.io -->
<svg version="1.1" xmlns="http://www.w3.org/2000/svg" width="32" height="32" viewBox="0 0 32 32">
<title>star</title>
<path d="M30.4 15.086c0.686-0.686 1.029-1.829 0.686-2.743-0.343-1.029-1.143-1.714-2.286-1.943l-6.857-1.029c-0.229 0-0.343-0.114-0.457-0.343l-3.086-6.171c-0.457-0.914-1.371-1.486-2.4-1.486s-1.943 0.571-2.4 1.486l-3.086 6.286c-0.114 0.114-0.229 0.229-0.457 0.229l-6.743 1.029c-1.143 0.114-1.943 0.8-2.4 1.829-0.343 1.029 0 2.171 0.686 2.857l4.8 4.686c0.229 0.343 0.229 0.457 0.229 0.571l-1.143 6.857c-0.229 1.029 0.229 2.171 1.143 2.743 0.457 0.343 1.029 0.457 1.6 0.457 0.457 0 0.914-0.114 1.371-0.343l6.171-3.2c0.114-0.114 0.343-0.114 0.457 0l6.171 3.2c0.914 0.571 2.057 0.457 2.971-0.114s1.257-1.714 1.143-2.743l-1.143-6.857c0-0.114 0-0.343 0.114-0.457l4.914-4.8zM23.086 20.8l1.143 6.857c0 0.343-0.114 0.457-0.229 0.571s-0.229 0.114-0.571 0l-6.171-3.2c-0.8-0.343-1.714-0.343-2.514 0l-6.171 3.2c-0.229 0.114-0.457 0.114-0.571 0-0.114 0-0.229-0.229-0.229-0.571l1.143-6.857c0.229-1.029-0.229-1.829-0.686-2.4l-0.114-0.114-4.914-4.8c-0.229-0.114-0.114-0.343-0.114-0.457s0.114-0.229 0.457-0.343l6.857-1.029c0.914-0.229 1.714-0.686 2.057-1.486l3.086-6.171c0.114-0.229 0.343-0.229 0.457-0.229s0.343 0 0.457 0.229l3.086 6.171c0.343 0.8 1.143 1.371 2.057 1.486l6.857 1.029c0.229 0 0.343 0.229 0.457 0.343 0 0.114 0.114 0.343-0.114 0.457l-4.914 4.8c-0.686 0.686-1.029 1.6-0.8 2.514z"></path>
</svg>
