<!-- Generated by IcoMoon.io -->
<svg version="1.1" xmlns="http://www.w3.org/2000/svg" width="32" height="32" viewBox="0 0 32 32">
<title>stat-up</title>
<path d="M29.714 6.286c-0.229-0.114-0.457-0.114-0.686 0h-8.8c-0.686 0-1.143 0.457-1.143 1.143s0.457 1.143 1.143 1.143h6.514l-10.514 11.314v-6.286c0-0.457-0.229-0.914-0.686-1.029-0.457-0.229-0.914-0.114-1.257 0.229l-12.343 11.086c-0.457 0.457-0.457 1.143-0.114 1.6 0.229 0.229 0.571 0.343 0.8 0.343s0.571-0.114 0.8-0.343l10.286-9.486v6.514c0 0.457 0.343 0.914 0.686 1.029s0.914 0.114 1.257-0.229l12.457-13.143v6.4c0 0.686 0.457 1.143 1.143 1.143s1.143-0.457 1.143-1.143v-9.257c0-0.457-0.343-0.914-0.686-1.029z"></path>
</svg>
