<!-- Generated by IcoMoon.io -->
<svg version="1.1" xmlns="http://www.w3.org/2000/svg" width="32" height="32" viewBox="0 0 32 32">
<title>stat-down</title>
<path d="M29.257 14.4c-0.686 0-1.143 0.457-1.143 1.143v6.286l-12.457-13.143c-0.343-0.343-0.8-0.457-1.257-0.229-0.457 0.114-0.686 0.571-0.686 1.029v6.514l-10.171-9.486c-0.457-0.457-1.143-0.457-1.6 0s-0.457 1.143 0 1.6l12.114 11.314c0.343 0.343 0.8 0.343 1.257 0.229 0.457-0.229 0.686-0.571 0.686-1.029v-6.286l10.629 11.2h-6.629c-0.686 0-1.143 0.457-1.143 1.143s0.457 1.143 1.143 1.143h8.571c0.114 0 0.229 0 0.343-0.114 0.114 0 0.229 0.114 0.343 0.114s0.229 0 0.457-0.114c0.457-0.229 0.686-0.571 0.686-1.029v-9.143c0-0.686-0.457-1.143-1.143-1.143z"></path>
</svg>
