<!-- Generated by IcoMoon.io -->
<svg version="1.1" xmlns="http://www.w3.org/2000/svg" width="32" height="32" viewBox="0 0 32 32">
<title>support-head</title>
<path d="M30.629 16c0-8-6.629-14.629-14.629-14.629s-14.629 6.629-14.629 14.629v3.2c0 1.714 1.371 3.086 3.086 3.086s3.086-1.371 3.086-3.086v-3.086c0-1.714-1.371-3.086-3.086-3.086h-0.457c1.371-5.371 6.286-9.371 12-9.371 5.829 0 10.743 4.114 12 9.6h-0.457c-1.714 0-3.086 1.371-3.086 3.086v3.086c0 1.257 0.8 2.4 1.943 2.857-0.229 2.743-2.4 4.914-5.143 5.143h-0.457c-0.343-0.686-1.029-1.143-1.829-1.143h-3.429c-1.143 0-2.057 0.914-2.057 2.057s0.914 2.057 2.057 2.057h3.429c0.571 0 1.143-0.229 1.486-0.686h0.914c3.886-0.343 6.971-3.543 7.2-7.429 1.143-0.457 1.943-1.6 1.943-2.857v-3.086c0.114-0.114 0.114-0.229 0.114-0.343zM5.371 16.114v3.086c0 0.457-0.343 0.8-0.8 0.8s-0.8-0.343-0.8-0.8v-3.086c0-0.457 0.343-0.8 0.8-0.8s0.8 0.343 0.8 0.8zM26.629 16.343c0-0.457 0.343-0.8 0.8-0.8s0.8 0.343 0.8 0.8v3.086c0 0.457-0.343 0.8-0.8 0.8s-0.8-0.343-0.8-0.8v-3.086z"></path>
</svg>
