<!-- Generated by IcoMoon.io -->
<svg version="1.1" xmlns="http://www.w3.org/2000/svg" width="32" height="32" viewBox="0 0 32 32">
<title>t-shirt</title>
<path d="M16 31.314c-5.371 0-8.457-0.457-9.143-1.486l-0.229-0.343-0.114-18.514-1.829 1.143c-0.571 0.343-1.143 0.343-1.714 0s-1.029-1.029-1.029-1.943v-2.629c0-0.686 0.343-1.371 0.914-1.829l6.171-4.229c0.686-0.457 1.371-0.686 2.171-0.686h0.571c0.8 0 1.6 0.571 1.714 1.486v0.686c0 1.6 0.229 2.971 2.629 2.971 1.943 0 2.4-1.143 2.4-2.971v-0.686c0.229-0.8 0.914-1.486 1.714-1.486h0.571c0.8 0 1.486 0.229 2.171 0.686l6.171 4.229c0.571 0.457 0.914 1.029 0.914 1.829v2.743c0 0.8-0.343 1.486-1.029 1.829-0.571 0.343-1.257 0.343-1.714 0l-1.829-1.029-0.114 18.4-0.229 0.229c-0.8 1.371-5.371 1.6-9.143 1.6zM8.914 28.457c0.686 0.229 2.629 0.571 7.086 0.571 4.571 0 6.4-0.457 7.086-0.686l0.229-18.4c0.114-0.686 0.457-1.257 1.029-1.486s1.143-0.229 1.6 0.114l1.829 1.143v-2.171l-6.057-4.114c-0.343-0.229-0.571-0.343-0.914-0.343h-0.114c-0.114 4.229-2.629 5.143-4.686 5.143-3.2-0.114-4.8-1.829-4.8-5.143h-0.114c-0.343 0-0.571 0.114-0.914 0.343l-6.057 4.114v2.057l1.943-1.143c0.457-0.343 1.029-0.343 1.6-0.114s0.914 0.8 1.029 1.486v0.229l0.229 18.4zM7.314 10.514c-0.114 0-0.114 0 0 0z"></path>
</svg>
