<!-- Generated by IcoMoon.io -->
<svg version="1.1" xmlns="http://www.w3.org/2000/svg" width="32" height="32" viewBox="0 0 32 32">
<title>table</title>
<path d="M11.657 16.229h-6.629v-11.314c0-0.686-0.457-1.143-1.143-1.143s-1.143 0.457-1.143 1.143v21.714c0 0.686 0.457 1.143 1.143 1.143s1.143-0.457 1.143-1.143v-8.114h5.486v8.114c0 0.686 0.457 1.143 1.143 1.143s1.143-0.457 1.143-1.143v-9.257c0-0.686-0.457-1.143-1.143-1.143zM28.114 3.771c-0.686 0-1.143 0.457-1.143 1.143v11.314h-6.857c-0.686 0-1.143 0.457-1.143 1.143v9.257c0 0.686 0.457 1.143 1.143 1.143s1.143-0.457 1.143-1.143v-8.114h5.714v8.114c0 0.686 0.457 1.143 1.143 1.143s1.143-0.457 1.143-1.143v-21.714c0-0.571-0.571-1.143-1.143-1.143z"></path>
<path d="M24.457 14.4c0.686 0 1.143-0.457 1.143-1.143s-0.457-1.143-1.143-1.143h-16.571c-0.686 0-1.143 0.457-1.143 1.143s0.457 1.143 1.143 1.143h6.971v12.686c0 0.686 0.457 1.143 1.143 1.143s1.143-0.457 1.143-1.143v-12.686h7.314z"></path>
</svg>
