<!-- Generated by IcoMoon.io -->
<svg version="1.1" xmlns="http://www.w3.org/2000/svg" width="32" height="32" viewBox="0 0 32 32">
<title>tag-1</title>
<path d="M29.829 14.857l-12.8-12.8c-0.686-0.686-1.714-1.029-2.857-1.029l-7.2 0.343c-2.743 0.343-5.371 2.857-5.486 5.6l-0.457 7.086c-0.114 1.029 0.229 2.286 1.029 2.971l12.8 12.8c0.686 0.686 1.6 1.143 2.629 1.143h0.114c1.371 0 2.857-0.686 4-1.829l7.657-7.657c0.914-0.914 1.6-2.171 1.714-3.314 0.114-1.257-0.229-2.4-1.143-3.314zM28.686 17.943c-0.114 0.686-0.457 1.371-1.143 1.943l-7.657 7.657c-0.686 0.686-1.6 1.143-2.4 1.143-0.457 0-0.686-0.114-1.029-0.457l-12.8-12.8c-0.229-0.229-0.457-0.686-0.343-1.143l0.457-7.2c0.114-1.6 1.714-3.2 3.314-3.429l7.086-0.343c0.571 0 1.029 0.229 1.257 0.343l12.8 12.8c0.457 0.457 0.457 1.029 0.457 1.486z"></path>
<path d="M7.2 7.086c-0.8 0.8-0.914 2.171-0.114 2.971 0.343 0.343 0.914 0.571 1.486 0.571h0.114c0.457-0.114 1.029-0.343 1.371-0.686 0.914-0.8 0.914-2.171 0.114-2.971s-2.171-0.8-2.971 0.114zM20.571 12.8l-7.657 7.657c-0.457 0.457-0.457 1.143 0 1.6 0.229 0.229 0.571 0.343 0.8 0.343s0.571-0.114 0.8-0.343l7.657-7.657c0.457-0.457 0.457-1.143 0-1.6s-1.143-0.457-1.6 0z"></path>
</svg>
