<!-- Generated by IcoMoon.io -->
<svg version="1.1" xmlns="http://www.w3.org/2000/svg" width="32" height="32" viewBox="0 0 32 32">
<title>tag-4</title>
<path d="M26.171 3.429c-1.029-1.143-2.514-1.143-4-1.143h-12.114c-1.6 0-3.2 0-4.343 1.257-0.8 0.8-1.143 2.057-1.143 3.771v18.629c0 1.486 0.8 2.743 2.057 3.314 0.457 0.343 0.914 0.457 1.371 0.457 0.8 0 1.6-0.343 2.286-0.914l5.029-4.343c0.343-0.343 0.914-0.343 1.371 0.114l4.914 4.229c1.029 0.914 2.4 1.143 3.657 0.571s2.057-1.943 2.057-3.314v-18.629c0.114-1.943-0.229-3.2-1.143-4zM25.143 25.943c0 0.686-0.457 1.143-0.8 1.257-0.229 0.114-0.686 0.229-1.257-0.229l-4.8-4.114c-1.371-1.143-3.314-1.143-4.457 0l-4.914 4.229c-0.457 0.343-0.914 0.343-1.257 0.229-0.571-0.229-0.8-0.686-0.8-1.371v-18.629c0-1.143 0.114-1.829 0.457-2.286 0.457-0.457 1.6-0.457 2.743-0.457h12.114c1.029 0 1.943 0 2.4 0.343 0.343 0.457 0.571 1.257 0.571 2.514v18.514z"></path>
<path d="M12.457 12.571c0.571 0 1.143-0.229 1.6-0.686 0.8-0.8 0.8-2.171 0-2.971s-2.171-0.8-2.971 0.114c-0.8 0.8-0.914 2.171-0.114 2.971 0.343 0.343 0.914 0.571 1.486 0.571zM17.943 15.886c-0.343 0.343-0.571 0.914-0.686 1.486 0 0.571 0.229 1.143 0.571 1.6 0.343 0.343 0.914 0.571 1.371 0.571h0.114c0.571 0 1.029-0.229 1.486-0.686 0.8-0.8 0.914-2.171 0.114-2.971-0.8-0.914-2.171-0.914-2.971 0zM20.571 9.143c-0.457-0.457-1.143-0.457-1.6 0l-7.657 7.657c-0.457 0.457-0.457 1.143 0 1.6 0.229 0.229 0.571 0.343 0.8 0.343s0.571-0.114 0.8-0.343l7.657-7.657c0.457-0.343 0.457-1.143 0-1.6z"></path>
</svg>
