<!-- Generated by IcoMoon.io -->
<svg version="1.1" xmlns="http://www.w3.org/2000/svg" width="32" height="32" viewBox="0 0 32 32">
<title>tick-2</title>
<path d="M25.829 10.171c-0.457-0.457-1.143-0.571-1.6-0.114l-10.743 9.486-4-4.229c-0.457-0.457-1.143-0.457-1.6 0s-0.457 1.143 0 1.6l4.8 5.029c0.229 0.229 0.571 0.343 0.8 0.343s0.571-0.114 0.8-0.229l11.543-10.171c0.343-0.457 0.343-1.143 0-1.714z"></path>
<path d="M16 1.029c-8.229 0-14.971 6.743-14.971 14.971s6.743 14.971 14.971 14.971 14.971-6.743 14.971-14.971-6.743-14.971-14.971-14.971zM16 28.686c-6.971 0-12.686-5.714-12.686-12.686s5.714-12.686 12.686-12.686 12.686 5.714 12.686 12.686-5.714 12.686-12.686 12.686z"></path>
</svg>
