<!-- Generated by IcoMoon.io -->
<svg version="1.1" xmlns="http://www.w3.org/2000/svg" width="32" height="32" viewBox="0 0 32 32">
<title>toggle</title>
<path d="M7.086 7.429h17.829c0.686 0 1.143-0.457 1.143-1.143s-0.457-1.143-1.143-1.143h-17.829c-0.686 0-1.143 0.457-1.143 1.143s0.457 1.143 1.143 1.143zM24.914 14.857h-17.829c-0.686 0-1.143 0.457-1.143 1.143s0.457 1.143 1.143 1.143h17.829c0.686 0 1.143-0.457 1.143-1.143s-0.457-1.143-1.143-1.143zM24.914 24.571h-17.829c-0.686 0-1.143 0.457-1.143 1.143s0.457 1.143 1.143 1.143h17.829c0.686 0 1.143-0.457 1.143-1.143s-0.457-1.143-1.143-1.143z"></path>
</svg>
