<!-- Generated by IcoMoon.io -->
<svg version="1.1" xmlns="http://www.w3.org/2000/svg" width="32" height="32" viewBox="0 0 32 32">
<title>upload</title>
<path d="M24.457 19.429l-6.286-6.286c-0.914-0.914-2.286-0.914-3.2 0l-6.4 6.286c-0.457 0.457-0.457 1.143 0 1.6s1.143 0.457 1.6 0l5.257-5.257v12c0 0.686 0.457 1.143 1.143 1.143s1.143-0.457 1.143-1.143v-11.657l5.029 5.029c0.229 0.229 0.571 0.343 0.8 0.343s0.571-0.114 0.8-0.343c0.457-0.457 0.457-1.257 0.114-1.714z"></path>
<path d="M21.943 8.457c-0.914-3.086-4.229-5.371-7.886-5.371-4.571 0-8.229 3.314-8.229 7.429v0.686c-3.314 0.8-5.6 3.657-5.6 6.857 0 2.514 1.6 4.914 4 6.057 1.029 0.686 2.4 1.029 3.886 1.029 0.686 0 1.143-0.457 1.143-1.143s-0.457-1.143-1.143-1.143c-1.143 0-2.057-0.229-2.857-0.686-1.714-0.914-2.743-2.4-2.743-4.114 0-2.4 2.057-4.571 4.8-4.8 0.343 0 0.571-0.229 0.8-0.457s0.229-0.571 0.229-0.914v-0.229c-0.114-0.457-0.114-0.8-0.114-1.143 0-2.743 2.743-5.143 5.943-5.143 2.971 0 5.486 1.943 5.829 4.343 0.114 0.571 0.571 1.029 1.143 1.029h0.914c4 0 7.429 2.971 7.429 6.4 0 1.943-1.029 3.886-2.857 5.143-0.457 0.343-0.914 0.571-1.371 0.8-0.571 0.229-0.914 0.914-0.686 1.486 0.229 0.457 0.571 0.686 1.029 0.686 0.114 0 0.229 0 0.457-0.114 0.571-0.229 1.257-0.571 1.829-1.029 2.4-1.714 3.771-4.229 3.771-6.971 0.114-4.8-4.343-8.686-9.714-8.686z"></path>
</svg>
