<!-- Generated by IcoMoon.io -->
<svg version="1.1" xmlns="http://www.w3.org/2000/svg" width="32" height="32" viewBox="0 0 32 32">
<title>upload-2</title>
<path d="M28.8 18.629c-0.686 0-1.143 0.457-1.143 1.143v7.314c0 0.914-0.8 1.714-1.714 1.714h-19.657c-0.914 0-1.714-0.8-1.714-1.714v-7.314c0-0.686-0.457-1.143-1.143-1.143s-1.143 0.457-1.143 1.143v7.314c0 2.171 1.829 4 4 4h19.543c2.171 0 4-1.829 4-4v-7.314c0.114-0.571-0.457-1.143-1.029-1.143z"></path>
<path d="M17.943 1.943c-0.457-0.457-1.143-0.8-1.829-0.8s-1.371 0.229-1.829 0.8l-7.086 6.971c-0.343 0.457-0.343 1.143 0 1.6s1.143 0.457 1.6 0l6.057-6.057v19.314c0 0.686 0.457 1.143 1.143 1.143s1.143-0.457 1.143-1.143v-19.314l6.057 6.057c0.457 0.457 1.143 0.457 1.6 0s0.457-1.143 0-1.6l-6.857-6.971z"></path>
</svg>
