<!-- Generated by IcoMoon.io -->
<svg version="1.1" xmlns="http://www.w3.org/2000/svg" width="32" height="32" viewBox="0 0 32 32">
<title>user-group</title>
<path d="M23.771 15.886c1.486-1.257 2.4-3.086 2.4-5.143 0-3.657-2.971-6.629-6.629-6.629-1.257 0-2.514 0.343-3.543 1.029-1.029-0.686-2.286-1.029-3.543-1.029-3.657 0-6.629 2.971-6.629 6.629 0 2.057 0.914 3.886 2.4 5.143-4.457 1.714-7.543 5.943-7.543 10.971 0 0.686 0.457 1.143 1.143 1.143s1.143-0.457 1.143-1.143c0-5.257 4.229-9.486 9.486-9.486h0.114c-2.857 2.057-4.8 5.486-4.8 9.371 0 0.686 0.457 1.143 1.143 1.143s1.143-0.457 1.143-1.143c0-5.257 4.229-9.486 9.486-9.486s9.486 4.229 9.486 9.486c0 0.686 0.457 1.143 1.143 1.143s1.143-0.457 1.143-1.143c0-4.914-3.2-9.257-7.543-10.857zM23.886 10.743c0 2.4-1.943 4.343-4.343 4.343s-4.343-1.943-4.343-4.343 1.943-4.343 4.343-4.343 4.343 1.943 4.343 4.343zM8.114 10.743c0-2.4 1.943-4.343 4.343-4.343 0.571 0 1.257 0.114 1.829 0.343-0.8 1.143-1.371 2.514-1.371 4s0.457 2.857 1.371 4c-0.571 0.229-1.143 0.343-1.829 0.343-2.4 0-4.343-1.943-4.343-4.343z"></path>
</svg>
