<!-- Generated by IcoMoon.io -->
<svg version="1.1" xmlns="http://www.w3.org/2000/svg" width="32" height="32" viewBox="0 0 32 32">
<title>user</title>
<path d="M20.229 15.886c1.486-1.257 2.4-3.086 2.4-5.143 0-3.657-2.971-6.629-6.629-6.629s-6.629 2.971-6.629 6.629c0 2.057 0.914 3.886 2.4 5.143-4.457 1.714-7.543 5.943-7.543 10.971 0 0.686 0.457 1.143 1.143 1.143s1.143-0.457 1.143-1.143c0-5.257 4.229-9.486 9.486-9.486s9.486 4.229 9.486 9.486c0 0.686 0.457 1.143 1.143 1.143s1.143-0.457 1.143-1.143c0-5.029-3.2-9.371-7.543-10.971zM11.657 10.743c0-2.4 1.943-4.343 4.343-4.343s4.343 1.943 4.343 4.343-1.943 4.343-4.343 4.343-4.343-1.943-4.343-4.343z"></path>
</svg>
