<!-- Generated by IcoMoon.io -->
<svg version="1.1" xmlns="http://www.w3.org/2000/svg" width="32" height="32" viewBox="0 0 32 32">
<title>user-shop</title>
<path d="M23.886 21.143c0.914-0.914 1.486-2.171 1.486-3.543 0-2.743-2.286-5.029-5.029-5.029s-5.029 2.286-5.029 5.029c0 1.371 0.571 2.629 1.486 3.543-2.971 1.371-5.029 4.343-5.029 7.886 0 0.686 0.457 1.143 1.143 1.143s1.143-0.457 1.143-1.143c0-3.543 2.857-6.286 6.4-6.286s6.286 2.857 6.286 6.286c0 0.686 0.457 1.143 1.143 1.143s1.143-0.457 1.143-1.143c-0.114-3.429-2.171-6.514-5.143-7.886zM17.486 17.714c0-1.486 1.257-2.743 2.743-2.743s2.743 1.257 2.743 2.743-1.257 2.743-2.743 2.743c-1.486 0-2.743-1.257-2.743-2.743z"></path>
<path d="M29.486 5.371v-2.4c0-0.686-0.457-1.143-1.143-1.143h-24.686c-0.686 0-1.143 0.457-1.143 1.143v2.4c-0.686 0-1.143 0.457-1.143 1.143v1.371c0 1.143 0.457 2.171 1.143 2.971v16.343c0 0.343 0.229 0.571 0.457 0.686s0.457 0.229 0.686 0.229h5.6c0.686 0 1.143-0.457 1.143-1.143s-0.457-1.143-1.143-1.143h-4.457v-13.6c0.343 0.114 0.686 0.114 1.029 0.114 1.257 0 2.514-0.571 3.314-1.486 0.8 0.914 1.943 1.486 3.314 1.486s2.629-0.686 3.429-1.6c0.8 1.029 2.057 1.6 3.429 1.6s2.629-0.686 3.429-1.6c0.8 1.029 2.057 1.6 3.429 1.6 0.343 0 0.686 0 1.029-0.114v9.143c0 0.571 0.457 1.029 1.029 1.029 0.686 0 1.143-0.457 1.143-1.143v-10.4c0.686-0.8 1.143-1.829 1.143-2.971v-1.371c0.114-0.686-0.457-1.143-1.029-1.143zM8 7.886c0 1.143-0.914 2.171-2.171 2.171s-2.171-0.914-2.171-2.171v-0.229h4.343v0.229zM14.629 7.886c0 1.143-0.914 2.171-2.171 2.171-1.371 0-2.286-0.914-2.286-2.171v-0.229h4.343v0.229zM21.486 7.886c0 1.143-0.914 2.171-2.171 2.171s-2.171-0.914-2.171-2.171v-0.229h4.343v0.229zM22.743 5.371h-17.943v-1.257h22.4v1.257h-4.457zM28.343 7.886c0 1.143-0.914 2.171-2.171 2.171s-2.171-0.914-2.171-2.171v-0.229h4.343v0.229z"></path>
</svg>
