<!-- Generated by IcoMoon.io -->
<svg version="1.1" xmlns="http://www.w3.org/2000/svg" width="32" height="32" viewBox="0 0 32 32">
<title>user-cash</title>
<path d="M20.229 15.886c1.486-1.257 2.4-3.086 2.4-5.143 0-3.657-2.971-6.629-6.629-6.629s-6.629 2.971-6.629 6.629c0 2.057 0.914 3.886 2.4 5.143-4.457 1.714-7.543 5.943-7.543 10.971 0 0.686 0.457 1.143 1.143 1.143s1.143-0.457 1.143-1.143c0-5.257 4.229-9.486 9.486-9.486s9.486 4.229 9.486 9.486c0 0.686 0.457 1.143 1.143 1.143s1.143-0.457 1.143-1.143c0-5.029-3.2-9.371-7.543-10.971zM11.657 10.743c0-2.4 1.943-4.343 4.343-4.343s4.343 1.943 4.343 4.343-1.943 4.343-4.343 4.343-4.343-1.943-4.343-4.343z"></path>
<path d="M21.829 20.686h-3.886c-0.686 0-1.143 0.457-1.143 1.143v3.086c0 0.571 0.229 1.143 0.8 1.486l0.114 0.114 1.257 0.686c0.343 0.229 0.686 0.229 1.029 0.229s0.686-0.114 0.914-0.229l1.257-0.571s0.114 0 0.114-0.114c0.457-0.343 0.8-0.914 0.8-1.486v-3.2c-0.114-0.686-0.686-1.143-1.257-1.143zM20.686 24.686l-0.8 0.343-0.8-0.457v-1.714h1.6v1.829z"></path>
</svg>
