<!-- Generated by IcoMoon.io -->
<svg version="1.1" xmlns="http://www.w3.org/2000/svg" width="32" height="32" viewBox="0 0 32 32">
<title>user-owner</title>
<path d="M20.229 15.886c1.486-1.257 2.4-3.086 2.4-5.143 0-3.657-2.971-6.629-6.629-6.629s-6.629 2.971-6.629 6.629c0 2.057 0.914 3.886 2.4 5.143-4.457 1.714-7.543 5.943-7.543 10.971 0 0.686 0.457 1.143 1.143 1.143s1.143-0.457 1.143-1.143c0-3.657 2.171-6.971 5.257-8.457l2.971 2.4v3.886c0 0.686 0.457 1.143 1.143 1.143s1.143-0.457 1.143-1.143v-4l2.743-2.514c3.2 1.486 5.486 4.8 5.486 8.571 0 0.686 0.457 1.143 1.143 1.143s1.143-0.457 1.143-1.143c0.229-4.914-2.971-9.257-7.314-10.857zM11.657 10.743c0-2.4 1.943-4.343 4.343-4.343s4.343 1.943 4.343 4.343-1.943 4.343-4.343 4.343-4.343-1.943-4.343-4.343zM16 18.629l-1.486-1.257c0.457-0.114 1.029-0.114 1.6-0.114 0.457 0 0.914 0 1.371 0.114l-1.486 1.257z"></path>
</svg>
