<!-- Generated by IcoMoon.io -->
<svg version="1.1" xmlns="http://www.w3.org/2000/svg" width="32" height="32" viewBox="0 0 32 32">
<title>user-add</title>
<path d="M19.543 14.514c1.486-1.257 2.4-3.086 2.4-5.143 0-3.657-2.971-6.629-6.629-6.629s-6.629 2.971-6.629 6.629c0 2.057 0.914 3.886 2.4 5.143-4.457 1.714-7.543 5.943-7.543 10.971 0 0.686 0.457 1.143 1.143 1.143s1.143-0.457 1.143-1.143c0-5.257 4.229-9.486 9.486-9.486 1.6 0 3.086 0.343 4.343 1.029 0.571 0.571 2.4-0.571 1.371-1.829-0.457-0.343-0.914-0.571-1.486-0.686zM10.971 9.371c0-2.4 1.943-4.343 4.343-4.343s4.343 1.943 4.343 4.343-1.943 4.343-4.343 4.343-4.343-1.943-4.343-4.343zM27.314 20.343h-2.857v-2.743c0-0.686-0.457-1.143-1.143-1.143s-1.143 0.457-1.143 1.143v2.743h-2.857c-0.686 0-1.143 0.457-1.143 1.143s0.457 1.143 1.143 1.143h2.857v2.743c0 0.686 0.457 1.143 1.143 1.143s1.143-0.457 1.143-1.143v-2.743h2.857c0.686 0 1.143-0.457 1.143-1.143 0-0.571-0.457-1.143-1.143-1.143z"></path>
</svg>
