<!-- Generated by IcoMoon.io -->
<svg version="1.1" xmlns="http://www.w3.org/2000/svg" width="32" height="32" viewBox="0 0 32 32">
<title>van-ship</title>
<path d="M24.114 8.114c-0.343-2.286-2.171-4-4.457-4h-14.514c-2.514 0-4.571 2.057-4.571 4.571v9.829c0 2.171 1.6 4.114 3.771 4.457 0 0.229-0.114 0.457-0.114 0.8 0 2.4 1.714 4.114 4.114 4.114 2.286 0 4.114-1.829 4.114-4.114v-0.686h6.743c0 0.229-0.114 0.457-0.114 0.686 0 2.4 1.714 4.114 4.114 4.114 2.286 0 4.114-1.829 4.114-4.114v-0.686h0.686c1.943 0 3.543-1.6 3.543-3.657v-2.971c-0.114-4.343-3.314-7.886-7.429-8.343zM28.571 13.829h-4.343v-3.429c1.829 0.343 3.543 1.714 4.343 3.429zM2.857 18.514v-9.829c0-1.143 1.143-2.286 2.286-2.286h14.514c1.257 0 2.286 1.029 2.286 2.286v12.114h-16.8c-1.257 0-2.286-1.143-2.286-2.286zM10.171 23.771c0 1.029-0.8 1.829-1.829 1.829s-1.829-0.8-1.829-1.829c0-0.229 0-0.457 0.114-0.686h3.429c0 0.229 0.114 0.457 0.114 0.686zM25.029 23.771c0 1.029-0.8 1.829-1.829 1.829s-1.829-0.8-1.829-1.829c0-0.229 0-0.457 0.114-0.686h3.429c0 0.229 0.114 0.457 0.114 0.686zM29.143 19.429c0 0.8-0.571 1.371-1.257 1.371h-3.771v-4.686h5.029v3.314z"></path>
</svg>
