<!-- Generated by IcoMoon.io -->
<svg version="1.1" xmlns="http://www.w3.org/2000/svg" width="32" height="32" viewBox="0 0 32 32">
<title>video</title>
<path d="M26.629 2.971h-21.257c-2.514 0-4.571 2.057-4.571 4.571v16.914c0 2.514 2.057 4.571 4.571 4.571h21.371c2.514 0 4.571-2.057 4.571-4.457v-17.029c-0.114-2.514-2.057-4.571-4.686-4.571zM6.743 15.086h-3.657v-3.429h3.771v3.429zM3.086 17.371h3.771v3.429h-3.771v-3.429zM9.029 5.257h13.714v21.486h-13.714v-21.486zM25.029 11.657h3.886v3.429h-3.886v-3.429zM25.029 17.371h3.886v3.429h-3.886v-3.429zM28.914 7.543v1.829h-3.886v-4.114h1.6c1.371 0 2.286 1.029 2.286 2.286zM5.371 5.257h1.486v4.114h-3.771v-1.829c0-1.257 0.914-2.286 2.286-2.286zM3.086 24.457v-1.371h3.771v3.657h-1.486c-1.257 0-2.286-1.143-2.286-2.286zM26.629 26.743h-1.6v-3.657h3.886v1.486c0 1.143-1.029 2.171-2.286 2.171z"></path>
</svg>
