<!-- Generated by IcoMoon.io -->
<svg version="1.1" xmlns="http://www.w3.org/2000/svg" width="32" height="32" viewBox="0 0 32 32">
<title>video-camera</title>
<path d="M28.914 8.457c-1.486-0.8-3.543-0.457-5.486 0.8l-1.943 1.486c-0.457-1.943-2.286-3.543-4.457-3.543h-11.086c-2.514 0-4.571 2.057-4.571 4.571v8.343c0 2.514 2.057 4.571 4.571 4.571h11.086c2.057 0 3.771-1.371 4.343-3.314l2.057 1.486c1.257 0.8 2.629 1.257 3.771 1.257 0.686 0 1.257-0.114 1.714-0.343 1.029-0.571 1.6-1.6 1.6-2.857v-9.486c0.114-1.829-0.914-2.743-1.6-2.971zM19.314 20.114c0 1.257-1.029 2.286-2.286 2.286h-11.086c-1.143 0-2.286-1.143-2.286-2.286v-8.343c0-1.143 1.143-2.286 2.286-2.286h8.914v5.6c0 0.686 0.457 1.143 1.143 1.143s1.143-0.457 1.143-1.143v-5.486c1.143 0.114 2.171 1.143 2.171 2.286v8.229zM28.343 21.029c0 0.686-0.229 0.8-0.343 0.8-0.571 0.343-1.943 0.114-3.2-0.8l-2.057-1.486c-0.571-0.343-0.8-1.143-0.8-1.829v-3.314c0-0.686 0.343-1.486 0.914-1.829l2.057-1.486c1.257-0.914 2.514-1.029 3.086-0.686 0.114 0.114 0.457 0.229 0.457 1.029v9.6z"></path>
</svg>
