<!-- Generated by IcoMoon.io -->
<svg version="1.1" xmlns="http://www.w3.org/2000/svg" width="32" height="32" viewBox="0 0 32 32">
<title>view-grid</title>
<path d="M12.343 1.143h-8.457c-1.6 0-2.857 1.257-2.857 2.857v8.457c0 1.6 1.257 2.857 2.857 2.857h8.457c0.914 0 1.714-0.343 2.171-1.029 0.457-0.571 0.686-1.257 0.686-1.943v-8.343c0-1.6-1.257-2.857-2.857-2.857zM12.8 12.8c-0.114 0.114-0.343 0.229-0.457 0.229h-8.457c-0.229 0-0.571-0.343-0.571-0.571v-8.457c0-0.229 0.343-0.571 0.571-0.571h8.457c0.229 0 0.571 0.343 0.571 0.571v8.571c0 0.114 0 0.229-0.114 0.229zM28.114 1.143h-8.457c-1.6 0-2.857 1.257-2.857 2.857v8.457c0 1.6 1.257 2.857 2.857 2.857h8.457c1.6 0 2.857-1.257 2.857-2.857v-8.457c0-1.6-1.257-2.857-2.857-2.857zM28.686 12.457c0 0.229-0.343 0.571-0.571 0.571h-8.457c-0.229 0-0.571-0.343-0.571-0.571v-8.457c0-0.229 0.343-0.571 0.571-0.571h8.457c0.229 0 0.571 0.343 0.571 0.571v8.457zM12.343 16.686h-8.457c-1.6 0-2.857 1.257-2.857 2.857v8.457c0 1.6 1.257 2.857 2.857 2.857h8.457c0.914 0 1.714-0.343 2.171-1.029 0.457-0.571 0.686-1.257 0.686-1.943v-8.343c0-1.6-1.257-2.857-2.857-2.857zM12.8 28.343c-0.114 0.114-0.229 0.229-0.457 0.229h-8.457c-0.229 0-0.571-0.343-0.571-0.571v-8.457c0-0.229 0.343-0.571 0.571-0.571h8.457c0.229 0 0.571 0.343 0.571 0.571v8.571c0 0.114 0 0.229-0.114 0.229zM28.114 16.686h-8.457c-1.6 0-2.857 1.257-2.857 2.857v8.457c0 1.6 1.257 2.857 2.857 2.857h8.457c1.6 0 2.857-1.257 2.857-2.857v-8.457c0-1.6-1.257-2.857-2.857-2.857zM28.686 28c0 0.229-0.343 0.571-0.571 0.571h-8.457c-0.229 0-0.571-0.343-0.571-0.571v-8.457c0-0.229 0.343-0.571 0.571-0.571h8.457c0.229 0 0.571 0.343 0.571 0.571v8.457z"></path>
</svg>
