<!-- Generated by IcoMoon.io -->
<svg version="1.1" xmlns="http://www.w3.org/2000/svg" width="32" height="32" viewBox="0 0 32 32">
<title>wifi</title>
<path d="M17.143 25.714c0 0.631-0.512 1.143-1.143 1.143s-1.143-0.512-1.143-1.143c0-0.631 0.512-1.143 1.143-1.143s1.143 0.512 1.143 1.143z"></path>
<path d="M21.257 20.343c-1.486-0.914-3.086-1.371-4.8-1.371-2.057-0.114-4 0.457-5.714 1.6-0.571 0.343-0.686 1.029-0.343 1.6 0.229 0.343 0.571 0.571 0.914 0.571 0.229 0 0.457-0.114 0.571-0.229 1.371-0.914 2.857-1.257 4.457-1.257 1.257 0 2.514 0.457 3.657 1.143 0.571 0.343 1.257 0.114 1.6-0.343 0.343-0.686 0.229-1.371-0.343-1.714zM16.457 12c-3.657-0.114-7.2 0.914-10.286 2.971-0.571 0.343-0.686 1.029-0.343 1.6s1.029 0.686 1.6 0.343c2.743-1.829 5.829-2.743 9.029-2.629 2.857 0.114 5.714 1.029 8.114 2.743 0.229 0.114 0.457 0.229 0.686 0.229 0.343 0 0.686-0.114 0.914-0.457 0.343-0.571 0.229-1.257-0.229-1.6-2.857-1.943-6.057-3.086-9.486-3.2zM29.714 9.829c-3.886-2.857-8.457-4.457-13.143-4.571-5.143-0.229-10.057 1.257-14.286 4.114-0.457 0.343-0.686 1.029-0.343 1.6s1.029 0.686 1.6 0.343c3.886-2.629 8.343-4 12.914-3.771 4.229 0.114 8.343 1.6 11.886 4.229 0.229 0.114 0.457 0.229 0.686 0.229 0.343 0 0.686-0.114 0.914-0.457 0.457-0.686 0.343-1.371-0.229-1.714z"></path>
</svg>
