<!-- Generated by IcoMoon.io -->
<svg version="1.1" xmlns="http://www.w3.org/2000/svg" width="32" height="32" viewBox="0 0 32 32">
<title>wifi-on</title>
<path d="M6.629 3.086c-0.343-0.457-1.029-0.571-1.6-0.229-0.457 0.343-0.571 1.029-0.229 1.6l1.6 2.4c-1.371 0.686-2.743 1.371-4.114 2.286-0.457 0.343-0.686 1.029-0.229 1.6 0.343 0.571 1.029 0.686 1.486 0.343 1.371-0.914 2.743-1.6 4.229-2.286l2.629 3.886c-1.486 0.457-2.971 1.143-4.229 2.057-0.571 0.343-0.686 1.029-0.343 1.6s1.029 0.686 1.6 0.343c1.371-0.914 2.857-1.6 4.343-2.057l2.857 4.114c-1.371 0.229-2.629 0.686-3.886 1.486-0.571 0.343-0.686 1.029-0.343 1.6 0.229 0.343 0.571 0.571 0.914 0.571 0.229 0 0.457-0.114 0.571-0.229 1.257-0.8 2.629-1.143 4.114-1.257l3.543 5.143c0.229 0.343 0.571 0.457 0.914 0.457 0.229 0 0.457-0.114 0.686-0.229 0.571-0.343 0.686-1.029 0.343-1.6l-14.857-21.6z"></path>
<path d="M17.143 25.486c0 0.631-0.512 1.143-1.143 1.143s-1.143-0.512-1.143-1.143c0-0.631 0.512-1.143 1.143-1.143s1.143 0.512 1.143 1.143z"></path>
<path d="M29.714 9.6c-3.886-2.857-8.457-4.457-13.143-4.571-1.943-0.114-3.771 0.114-5.714 0.457l1.371 2.057c1.371-0.229 2.743-0.343 4.229-0.229 4.229 0.114 8.343 1.6 11.886 4.229 0.229 0.114 0.457 0.229 0.686 0.229 0.343 0 0.686-0.114 0.914-0.457 0.457-0.686 0.343-1.371-0.229-1.714zM16.571 11.771h-1.257l1.6 2.286c2.743 0.114 5.371 1.143 7.771 2.743 0.229 0.114 0.457 0.229 0.686 0.229 0.343 0 0.686-0.114 0.914-0.457 0.343-0.571 0.229-1.257-0.229-1.6-2.971-1.943-6.171-3.086-9.486-3.2z"></path>
</svg>
