<!-- Generated by IcoMoon.io -->
<svg version="1.1" xmlns="http://www.w3.org/2000/svg" width="32" height="32" viewBox="0 0 32 32">
<title>zoom-minus</title>
<path d="M30.057 28.8l-6.4-6.514c1.829-2.286 2.857-5.143 2.857-8.229 0-3.543-1.371-6.857-3.886-9.371-2.286-2.286-5.371-3.543-8.571-3.429-6.857 0-12.457 5.714-12.457 12.8s5.6 12.8 12.457 12.8c2.971 0 5.829-1.029 8-2.971l6.4 6.514c0.229 0.229 0.571 0.343 0.8 0.343 0.343 0 0.571-0.114 0.8-0.343 0.457-0.457 0.457-1.143 0-1.6zM3.886 14.057c0-5.829 4.571-10.514 10.171-10.514h0.229c2.514 0 4.914 1.029 6.857 2.857 2.057 2.057 3.2 4.8 3.2 7.657s-1.143 5.486-2.971 7.429c-1.829 1.943-4.457 3.086-7.2 3.086-5.714 0-10.286-4.686-10.286-10.514z"></path>
<path d="M21.6 14.286c0-0.686-0.457-1.143-1.143-1.143h-12.8c-0.686 0-1.143 0.457-1.143 1.143s0.457 1.143 1.143 1.143h12.8c0.686 0 1.143-0.457 1.143-1.143z"></path>
</svg>
